<svg width="132" height="132" xmlns="http://www.w3.org/2000/svg" shape-rendering="crispEdges">
  <rect width="100%" height="100%" fill="white"/>
  <rect x="16" y="16" width="4" height="4" fill="black"/>
  <rect x="20" y="16" width="4" height="4" fill="black"/>
  <rect x="24" y="16" width="4" height="4" fill="black"/>
  <rect x="28" y="16" width="4" height="4" fill="black"/>
  <rect x="32" y="16" width="4" height="4" fill="black"/>
  <rect x="36" y="16" width="4" height="4" fill="black"/>
  <rect x="40" y="16" width="4" height="4" fill="black"/>
  <rect x="48" y="16" width="4" height="4" fill="black"/>
  <rect x="52" y="16" width="4" height="4" fill="black"/>
  <rect x="56" y="16" width="4" height="4" fill="black"/>
  <rect x="60" y="16" width="4" height="4" fill="black"/>
  <rect x="72" y="16" width="4" height="4" fill="black"/>
  <rect x="88" y="16" width="4" height="4" fill="black"/>
  <rect x="92" y="16" width="4" height="4" fill="black"/>
  <rect x="96" y="16" width="4" height="4" fill="black"/>
  <rect x="100" y="16" width="4" height="4" fill="black"/>
  <rect x="104" y="16" width="4" height="4" fill="black"/>
  <rect x="108" y="16" width="4" height="4" fill="black"/>
  <rect x="112" y="16" width="4" height="4" fill="black"/>
  <rect x="16" y="20" width="4" height="4" fill="black"/>
  <rect x="40" y="20" width="4" height="4" fill="black"/>
  <rect x="48" y="20" width="4" height="4" fill="black"/>
  <rect x="52" y="20" width="4" height="4" fill="black"/>
  <rect x="64" y="20" width="4" height="4" fill="black"/>
  <rect x="80" y="20" width="4" height="4" fill="black"/>
  <rect x="88" y="20" width="4" height="4" fill="black"/>
  <rect x="112" y="20" width="4" height="4" fill="black"/>
  <rect x="16" y="24" width="4" height="4" fill="black"/>
  <rect x="24" y="24" width="4" height="4" fill="black"/>
  <rect x="28" y="24" width="4" height="4" fill="black"/>
  <rect x="32" y="24" width="4" height="4" fill="black"/>
  <rect x="40" y="24" width="4" height="4" fill="black"/>
  <rect x="48" y="24" width="4" height="4" fill="black"/>
  <rect x="52" y="24" width="4" height="4" fill="black"/>
  <rect x="56" y="24" width="4" height="4" fill="black"/>
  <rect x="60" y="24" width="4" height="4" fill="black"/>
  <rect x="64" y="24" width="4" height="4" fill="black"/>
  <rect x="68" y="24" width="4" height="4" fill="black"/>
  <rect x="72" y="24" width="4" height="4" fill="black"/>
  <rect x="80" y="24" width="4" height="4" fill="black"/>
  <rect x="88" y="24" width="4" height="4" fill="black"/>
  <rect x="96" y="24" width="4" height="4" fill="black"/>
  <rect x="100" y="24" width="4" height="4" fill="black"/>
  <rect x="104" y="24" width="4" height="4" fill="black"/>
  <rect x="112" y="24" width="4" height="4" fill="black"/>
  <rect x="16" y="28" width="4" height="4" fill="black"/>
  <rect x="24" y="28" width="4" height="4" fill="black"/>
  <rect x="28" y="28" width="4" height="4" fill="black"/>
  <rect x="32" y="28" width="4" height="4" fill="black"/>
  <rect x="40" y="28" width="4" height="4" fill="black"/>
  <rect x="52" y="28" width="4" height="4" fill="black"/>
  <rect x="56" y="28" width="4" height="4" fill="black"/>
  <rect x="68" y="28" width="4" height="4" fill="black"/>
  <rect x="80" y="28" width="4" height="4" fill="black"/>
  <rect x="88" y="28" width="4" height="4" fill="black"/>
  <rect x="96" y="28" width="4" height="4" fill="black"/>
  <rect x="100" y="28" width="4" height="4" fill="black"/>
  <rect x="104" y="28" width="4" height="4" fill="black"/>
  <rect x="112" y="28" width="4" height="4" fill="black"/>
  <rect x="16" y="32" width="4" height="4" fill="black"/>
  <rect x="24" y="32" width="4" height="4" fill="black"/>
  <rect x="28" y="32" width="4" height="4" fill="black"/>
  <rect x="32" y="32" width="4" height="4" fill="black"/>
  <rect x="40" y="32" width="4" height="4" fill="black"/>
  <rect x="48" y="32" width="4" height="4" fill="black"/>
  <rect x="68" y="32" width="4" height="4" fill="black"/>
  <rect x="72" y="32" width="4" height="4" fill="black"/>
  <rect x="80" y="32" width="4" height="4" fill="black"/>
  <rect x="88" y="32" width="4" height="4" fill="black"/>
  <rect x="96" y="32" width="4" height="4" fill="black"/>
  <rect x="100" y="32" width="4" height="4" fill="black"/>
  <rect x="104" y="32" width="4" height="4" fill="black"/>
  <rect x="112" y="32" width="4" height="4" fill="black"/>
  <rect x="16" y="36" width="4" height="4" fill="black"/>
  <rect x="40" y="36" width="4" height="4" fill="black"/>
  <rect x="52" y="36" width="4" height="4" fill="black"/>
  <rect x="72" y="36" width="4" height="4" fill="black"/>
  <rect x="80" y="36" width="4" height="4" fill="black"/>
  <rect x="88" y="36" width="4" height="4" fill="black"/>
  <rect x="112" y="36" width="4" height="4" fill="black"/>
  <rect x="16" y="40" width="4" height="4" fill="black"/>
  <rect x="20" y="40" width="4" height="4" fill="black"/>
  <rect x="24" y="40" width="4" height="4" fill="black"/>
  <rect x="28" y="40" width="4" height="4" fill="black"/>
  <rect x="32" y="40" width="4" height="4" fill="black"/>
  <rect x="36" y="40" width="4" height="4" fill="black"/>
  <rect x="40" y="40" width="4" height="4" fill="black"/>
  <rect x="48" y="40" width="4" height="4" fill="black"/>
  <rect x="56" y="40" width="4" height="4" fill="black"/>
  <rect x="64" y="40" width="4" height="4" fill="black"/>
  <rect x="72" y="40" width="4" height="4" fill="black"/>
  <rect x="80" y="40" width="4" height="4" fill="black"/>
  <rect x="88" y="40" width="4" height="4" fill="black"/>
  <rect x="92" y="40" width="4" height="4" fill="black"/>
  <rect x="96" y="40" width="4" height="4" fill="black"/>
  <rect x="100" y="40" width="4" height="4" fill="black"/>
  <rect x="104" y="40" width="4" height="4" fill="black"/>
  <rect x="108" y="40" width="4" height="4" fill="black"/>
  <rect x="112" y="40" width="4" height="4" fill="black"/>
  <rect x="56" y="44" width="4" height="4" fill="black"/>
  <rect x="68" y="44" width="4" height="4" fill="black"/>
  <rect x="76" y="44" width="4" height="4" fill="black"/>
  <rect x="80" y="44" width="4" height="4" fill="black"/>
  <rect x="16" y="48" width="4" height="4" fill="black"/>
  <rect x="28" y="48" width="4" height="4" fill="black"/>
  <rect x="32" y="48" width="4" height="4" fill="black"/>
  <rect x="36" y="48" width="4" height="4" fill="black"/>
  <rect x="40" y="48" width="4" height="4" fill="black"/>
  <rect x="44" y="48" width="4" height="4" fill="black"/>
  <rect x="48" y="48" width="4" height="4" fill="black"/>
  <rect x="80" y="48" width="4" height="4" fill="black"/>
  <rect x="84" y="48" width="4" height="4" fill="black"/>
  <rect x="96" y="48" width="4" height="4" fill="black"/>
  <rect x="104" y="48" width="4" height="4" fill="black"/>
  <rect x="108" y="48" width="4" height="4" fill="black"/>
  <rect x="112" y="48" width="4" height="4" fill="black"/>
  <rect x="16" y="52" width="4" height="4" fill="black"/>
  <rect x="20" y="52" width="4" height="4" fill="black"/>
  <rect x="24" y="52" width="4" height="4" fill="black"/>
  <rect x="32" y="52" width="4" height="4" fill="black"/>
  <rect x="44" y="52" width="4" height="4" fill="black"/>
  <rect x="52" y="52" width="4" height="4" fill="black"/>
  <rect x="64" y="52" width="4" height="4" fill="black"/>
  <rect x="68" y="52" width="4" height="4" fill="black"/>
  <rect x="72" y="52" width="4" height="4" fill="black"/>
  <rect x="76" y="52" width="4" height="4" fill="black"/>
  <rect x="80" y="52" width="4" height="4" fill="black"/>
  <rect x="84" y="52" width="4" height="4" fill="black"/>
  <rect x="92" y="52" width="4" height="4" fill="black"/>
  <rect x="96" y="52" width="4" height="4" fill="black"/>
  <rect x="100" y="52" width="4" height="4" fill="black"/>
  <rect x="104" y="52" width="4" height="4" fill="black"/>
  <rect x="108" y="52" width="4" height="4" fill="black"/>
  <rect x="28" y="56" width="4" height="4" fill="black"/>
  <rect x="36" y="56" width="4" height="4" fill="black"/>
  <rect x="40" y="56" width="4" height="4" fill="black"/>
  <rect x="44" y="56" width="4" height="4" fill="black"/>
  <rect x="56" y="56" width="4" height="4" fill="black"/>
  <rect x="60" y="56" width="4" height="4" fill="black"/>
  <rect x="68" y="56" width="4" height="4" fill="black"/>
  <rect x="76" y="56" width="4" height="4" fill="black"/>
  <rect x="80" y="56" width="4" height="4" fill="black"/>
  <rect x="88" y="56" width="4" height="4" fill="black"/>
  <rect x="92" y="56" width="4" height="4" fill="black"/>
  <rect x="100" y="56" width="4" height="4" fill="black"/>
  <rect x="112" y="56" width="4" height="4" fill="black"/>
  <rect x="20" y="60" width="4" height="4" fill="black"/>
  <rect x="28" y="60" width="4" height="4" fill="black"/>
  <rect x="36" y="60" width="4" height="4" fill="black"/>
  <rect x="52" y="60" width="4" height="4" fill="black"/>
  <rect x="60" y="60" width="4" height="4" fill="black"/>
  <rect x="64" y="60" width="4" height="4" fill="black"/>
  <rect x="76" y="60" width="4" height="4" fill="black"/>
  <rect x="80" y="60" width="4" height="4" fill="black"/>
  <rect x="92" y="60" width="4" height="4" fill="black"/>
  <rect x="100" y="60" width="4" height="4" fill="black"/>
  <rect x="104" y="60" width="4" height="4" fill="black"/>
  <rect x="108" y="60" width="4" height="4" fill="black"/>
  <rect x="112" y="60" width="4" height="4" fill="black"/>
  <rect x="16" y="64" width="4" height="4" fill="black"/>
  <rect x="32" y="64" width="4" height="4" fill="black"/>
  <rect x="36" y="64" width="4" height="4" fill="black"/>
  <rect x="40" y="64" width="4" height="4" fill="black"/>
  <rect x="44" y="64" width="4" height="4" fill="black"/>
  <rect x="48" y="64" width="4" height="4" fill="black"/>
  <rect x="56" y="64" width="4" height="4" fill="black"/>
  <rect x="60" y="64" width="4" height="4" fill="black"/>
  <rect x="64" y="64" width="4" height="4" fill="black"/>
  <rect x="76" y="64" width="4" height="4" fill="black"/>
  <rect x="88" y="64" width="4" height="4" fill="black"/>
  <rect x="112" y="64" width="4" height="4" fill="black"/>
  <rect x="20" y="68" width="4" height="4" fill="black"/>
  <rect x="24" y="68" width="4" height="4" fill="black"/>
  <rect x="32" y="68" width="4" height="4" fill="black"/>
  <rect x="52" y="68" width="4" height="4" fill="black"/>
  <rect x="68" y="68" width="4" height="4" fill="black"/>
  <rect x="76" y="68" width="4" height="4" fill="black"/>
  <rect x="80" y="68" width="4" height="4" fill="black"/>
  <rect x="84" y="68" width="4" height="4" fill="black"/>
  <rect x="96" y="68" width="4" height="4" fill="black"/>
  <rect x="108" y="68" width="4" height="4" fill="black"/>
  <rect x="32" y="72" width="4" height="4" fill="black"/>
  <rect x="36" y="72" width="4" height="4" fill="black"/>
  <rect x="40" y="72" width="4" height="4" fill="black"/>
  <rect x="52" y="72" width="4" height="4" fill="black"/>
  <rect x="60" y="72" width="4" height="4" fill="black"/>
  <rect x="64" y="72" width="4" height="4" fill="black"/>
  <rect x="68" y="72" width="4" height="4" fill="black"/>
  <rect x="72" y="72" width="4" height="4" fill="black"/>
  <rect x="76" y="72" width="4" height="4" fill="black"/>
  <rect x="84" y="72" width="4" height="4" fill="black"/>
  <rect x="88" y="72" width="4" height="4" fill="black"/>
  <rect x="96" y="72" width="4" height="4" fill="black"/>
  <rect x="100" y="72" width="4" height="4" fill="black"/>
  <rect x="104" y="72" width="4" height="4" fill="black"/>
  <rect x="108" y="72" width="4" height="4" fill="black"/>
  <rect x="112" y="72" width="4" height="4" fill="black"/>
  <rect x="20" y="76" width="4" height="4" fill="black"/>
  <rect x="36" y="76" width="4" height="4" fill="black"/>
  <rect x="56" y="76" width="4" height="4" fill="black"/>
  <rect x="60" y="76" width="4" height="4" fill="black"/>
  <rect x="72" y="76" width="4" height="4" fill="black"/>
  <rect x="76" y="76" width="4" height="4" fill="black"/>
  <rect x="80" y="76" width="4" height="4" fill="black"/>
  <rect x="84" y="76" width="4" height="4" fill="black"/>
  <rect x="92" y="76" width="4" height="4" fill="black"/>
  <rect x="100" y="76" width="4" height="4" fill="black"/>
  <rect x="104" y="76" width="4" height="4" fill="black"/>
  <rect x="112" y="76" width="4" height="4" fill="black"/>
  <rect x="20" y="80" width="4" height="4" fill="black"/>
  <rect x="24" y="80" width="4" height="4" fill="black"/>
  <rect x="28" y="80" width="4" height="4" fill="black"/>
  <rect x="32" y="80" width="4" height="4" fill="black"/>
  <rect x="36" y="80" width="4" height="4" fill="black"/>
  <rect x="40" y="80" width="4" height="4" fill="black"/>
  <rect x="44" y="80" width="4" height="4" fill="black"/>
  <rect x="68" y="80" width="4" height="4" fill="black"/>
  <rect x="80" y="80" width="4" height="4" fill="black"/>
  <rect x="84" y="80" width="4" height="4" fill="black"/>
  <rect x="88" y="80" width="4" height="4" fill="black"/>
  <rect x="92" y="80" width="4" height="4" fill="black"/>
  <rect x="96" y="80" width="4" height="4" fill="black"/>
  <rect x="104" y="80" width="4" height="4" fill="black"/>
  <rect x="108" y="80" width="4" height="4" fill="black"/>
  <rect x="48" y="84" width="4" height="4" fill="black"/>
  <rect x="52" y="84" width="4" height="4" fill="black"/>
  <rect x="56" y="84" width="4" height="4" fill="black"/>
  <rect x="60" y="84" width="4" height="4" fill="black"/>
  <rect x="64" y="84" width="4" height="4" fill="black"/>
  <rect x="72" y="84" width="4" height="4" fill="black"/>
  <rect x="80" y="84" width="4" height="4" fill="black"/>
  <rect x="96" y="84" width="4" height="4" fill="black"/>
  <rect x="104" y="84" width="4" height="4" fill="black"/>
  <rect x="108" y="84" width="4" height="4" fill="black"/>
  <rect x="16" y="88" width="4" height="4" fill="black"/>
  <rect x="20" y="88" width="4" height="4" fill="black"/>
  <rect x="24" y="88" width="4" height="4" fill="black"/>
  <rect x="28" y="88" width="4" height="4" fill="black"/>
  <rect x="32" y="88" width="4" height="4" fill="black"/>
  <rect x="36" y="88" width="4" height="4" fill="black"/>
  <rect x="40" y="88" width="4" height="4" fill="black"/>
  <rect x="48" y="88" width="4" height="4" fill="black"/>
  <rect x="60" y="88" width="4" height="4" fill="black"/>
  <rect x="80" y="88" width="4" height="4" fill="black"/>
  <rect x="88" y="88" width="4" height="4" fill="black"/>
  <rect x="96" y="88" width="4" height="4" fill="black"/>
  <rect x="112" y="88" width="4" height="4" fill="black"/>
  <rect x="16" y="92" width="4" height="4" fill="black"/>
  <rect x="40" y="92" width="4" height="4" fill="black"/>
  <rect x="48" y="92" width="4" height="4" fill="black"/>
  <rect x="52" y="92" width="4" height="4" fill="black"/>
  <rect x="64" y="92" width="4" height="4" fill="black"/>
  <rect x="68" y="92" width="4" height="4" fill="black"/>
  <rect x="76" y="92" width="4" height="4" fill="black"/>
  <rect x="80" y="92" width="4" height="4" fill="black"/>
  <rect x="96" y="92" width="4" height="4" fill="black"/>
  <rect x="108" y="92" width="4" height="4" fill="black"/>
  <rect x="16" y="96" width="4" height="4" fill="black"/>
  <rect x="24" y="96" width="4" height="4" fill="black"/>
  <rect x="28" y="96" width="4" height="4" fill="black"/>
  <rect x="32" y="96" width="4" height="4" fill="black"/>
  <rect x="40" y="96" width="4" height="4" fill="black"/>
  <rect x="48" y="96" width="4" height="4" fill="black"/>
  <rect x="52" y="96" width="4" height="4" fill="black"/>
  <rect x="56" y="96" width="4" height="4" fill="black"/>
  <rect x="64" y="96" width="4" height="4" fill="black"/>
  <rect x="76" y="96" width="4" height="4" fill="black"/>
  <rect x="80" y="96" width="4" height="4" fill="black"/>
  <rect x="84" y="96" width="4" height="4" fill="black"/>
  <rect x="88" y="96" width="4" height="4" fill="black"/>
  <rect x="92" y="96" width="4" height="4" fill="black"/>
  <rect x="96" y="96" width="4" height="4" fill="black"/>
  <rect x="108" y="96" width="4" height="4" fill="black"/>
  <rect x="112" y="96" width="4" height="4" fill="black"/>
  <rect x="16" y="100" width="4" height="4" fill="black"/>
  <rect x="24" y="100" width="4" height="4" fill="black"/>
  <rect x="28" y="100" width="4" height="4" fill="black"/>
  <rect x="32" y="100" width="4" height="4" fill="black"/>
  <rect x="40" y="100" width="4" height="4" fill="black"/>
  <rect x="48" y="100" width="4" height="4" fill="black"/>
  <rect x="56" y="100" width="4" height="4" fill="black"/>
  <rect x="68" y="100" width="4" height="4" fill="black"/>
  <rect x="72" y="100" width="4" height="4" fill="black"/>
  <rect x="76" y="100" width="4" height="4" fill="black"/>
  <rect x="88" y="100" width="4" height="4" fill="black"/>
  <rect x="108" y="100" width="4" height="4" fill="black"/>
  <rect x="112" y="100" width="4" height="4" fill="black"/>
  <rect x="16" y="104" width="4" height="4" fill="black"/>
  <rect x="24" y="104" width="4" height="4" fill="black"/>
  <rect x="28" y="104" width="4" height="4" fill="black"/>
  <rect x="32" y="104" width="4" height="4" fill="black"/>
  <rect x="40" y="104" width="4" height="4" fill="black"/>
  <rect x="56" y="104" width="4" height="4" fill="black"/>
  <rect x="64" y="104" width="4" height="4" fill="black"/>
  <rect x="68" y="104" width="4" height="4" fill="black"/>
  <rect x="76" y="104" width="4" height="4" fill="black"/>
  <rect x="84" y="104" width="4" height="4" fill="black"/>
  <rect x="96" y="104" width="4" height="4" fill="black"/>
  <rect x="100" y="104" width="4" height="4" fill="black"/>
  <rect x="104" y="104" width="4" height="4" fill="black"/>
  <rect x="108" y="104" width="4" height="4" fill="black"/>
  <rect x="112" y="104" width="4" height="4" fill="black"/>
  <rect x="16" y="108" width="4" height="4" fill="black"/>
  <rect x="40" y="108" width="4" height="4" fill="black"/>
  <rect x="52" y="108" width="4" height="4" fill="black"/>
  <rect x="56" y="108" width="4" height="4" fill="black"/>
  <rect x="72" y="108" width="4" height="4" fill="black"/>
  <rect x="76" y="108" width="4" height="4" fill="black"/>
  <rect x="92" y="108" width="4" height="4" fill="black"/>
  <rect x="96" y="108" width="4" height="4" fill="black"/>
  <rect x="104" y="108" width="4" height="4" fill="black"/>
  <rect x="108" y="108" width="4" height="4" fill="black"/>
  <rect x="112" y="108" width="4" height="4" fill="black"/>
  <rect x="16" y="112" width="4" height="4" fill="black"/>
  <rect x="20" y="112" width="4" height="4" fill="black"/>
  <rect x="24" y="112" width="4" height="4" fill="black"/>
  <rect x="28" y="112" width="4" height="4" fill="black"/>
  <rect x="32" y="112" width="4" height="4" fill="black"/>
  <rect x="36" y="112" width="4" height="4" fill="black"/>
  <rect x="40" y="112" width="4" height="4" fill="black"/>
  <rect x="48" y="112" width="4" height="4" fill="black"/>
  <rect x="56" y="112" width="4" height="4" fill="black"/>
  <rect x="64" y="112" width="4" height="4" fill="black"/>
  <rect x="68" y="112" width="4" height="4" fill="black"/>
  <rect x="72" y="112" width="4" height="4" fill="black"/>
  <rect x="80" y="112" width="4" height="4" fill="black"/>
  <rect x="84" y="112" width="4" height="4" fill="black"/>
  <rect x="100" y="112" width="4" height="4" fill="black"/>
  <rect x="112" y="112" width="4" height="4" fill="black"/>
</svg>