<svg width="164" height="164" xmlns="http://www.w3.org/2000/svg" shape-rendering="crispEdges">
  <rect width="100%" height="100%" fill="white"/>
  <rect x="16" y="16" width="4" height="4" fill="black"/>
  <rect x="20" y="16" width="4" height="4" fill="black"/>
  <rect x="24" y="16" width="4" height="4" fill="black"/>
  <rect x="28" y="16" width="4" height="4" fill="black"/>
  <rect x="32" y="16" width="4" height="4" fill="black"/>
  <rect x="36" y="16" width="4" height="4" fill="black"/>
  <rect x="40" y="16" width="4" height="4" fill="black"/>
  <rect x="52" y="16" width="4" height="4" fill="black"/>
  <rect x="64" y="16" width="4" height="4" fill="black"/>
  <rect x="84" y="16" width="4" height="4" fill="black"/>
  <rect x="88" y="16" width="4" height="4" fill="black"/>
  <rect x="92" y="16" width="4" height="4" fill="black"/>
  <rect x="96" y="16" width="4" height="4" fill="black"/>
  <rect x="100" y="16" width="4" height="4" fill="black"/>
  <rect x="108" y="16" width="4" height="4" fill="black"/>
  <rect x="120" y="16" width="4" height="4" fill="black"/>
  <rect x="124" y="16" width="4" height="4" fill="black"/>
  <rect x="128" y="16" width="4" height="4" fill="black"/>
  <rect x="132" y="16" width="4" height="4" fill="black"/>
  <rect x="136" y="16" width="4" height="4" fill="black"/>
  <rect x="140" y="16" width="4" height="4" fill="black"/>
  <rect x="144" y="16" width="4" height="4" fill="black"/>
  <rect x="16" y="20" width="4" height="4" fill="black"/>
  <rect x="40" y="20" width="4" height="4" fill="black"/>
  <rect x="52" y="20" width="4" height="4" fill="black"/>
  <rect x="60" y="20" width="4" height="4" fill="black"/>
  <rect x="68" y="20" width="4" height="4" fill="black"/>
  <rect x="76" y="20" width="4" height="4" fill="black"/>
  <rect x="88" y="20" width="4" height="4" fill="black"/>
  <rect x="96" y="20" width="4" height="4" fill="black"/>
  <rect x="104" y="20" width="4" height="4" fill="black"/>
  <rect x="112" y="20" width="4" height="4" fill="black"/>
  <rect x="120" y="20" width="4" height="4" fill="black"/>
  <rect x="144" y="20" width="4" height="4" fill="black"/>
  <rect x="16" y="24" width="4" height="4" fill="black"/>
  <rect x="24" y="24" width="4" height="4" fill="black"/>
  <rect x="28" y="24" width="4" height="4" fill="black"/>
  <rect x="32" y="24" width="4" height="4" fill="black"/>
  <rect x="40" y="24" width="4" height="4" fill="black"/>
  <rect x="48" y="24" width="4" height="4" fill="black"/>
  <rect x="56" y="24" width="4" height="4" fill="black"/>
  <rect x="76" y="24" width="4" height="4" fill="black"/>
  <rect x="88" y="24" width="4" height="4" fill="black"/>
  <rect x="92" y="24" width="4" height="4" fill="black"/>
  <rect x="96" y="24" width="4" height="4" fill="black"/>
  <rect x="100" y="24" width="4" height="4" fill="black"/>
  <rect x="104" y="24" width="4" height="4" fill="black"/>
  <rect x="108" y="24" width="4" height="4" fill="black"/>
  <rect x="120" y="24" width="4" height="4" fill="black"/>
  <rect x="128" y="24" width="4" height="4" fill="black"/>
  <rect x="132" y="24" width="4" height="4" fill="black"/>
  <rect x="136" y="24" width="4" height="4" fill="black"/>
  <rect x="144" y="24" width="4" height="4" fill="black"/>
  <rect x="16" y="28" width="4" height="4" fill="black"/>
  <rect x="24" y="28" width="4" height="4" fill="black"/>
  <rect x="28" y="28" width="4" height="4" fill="black"/>
  <rect x="32" y="28" width="4" height="4" fill="black"/>
  <rect x="40" y="28" width="4" height="4" fill="black"/>
  <rect x="48" y="28" width="4" height="4" fill="black"/>
  <rect x="52" y="28" width="4" height="4" fill="black"/>
  <rect x="56" y="28" width="4" height="4" fill="black"/>
  <rect x="60" y="28" width="4" height="4" fill="black"/>
  <rect x="64" y="28" width="4" height="4" fill="black"/>
  <rect x="76" y="28" width="4" height="4" fill="black"/>
  <rect x="84" y="28" width="4" height="4" fill="black"/>
  <rect x="88" y="28" width="4" height="4" fill="black"/>
  <rect x="92" y="28" width="4" height="4" fill="black"/>
  <rect x="96" y="28" width="4" height="4" fill="black"/>
  <rect x="108" y="28" width="4" height="4" fill="black"/>
  <rect x="120" y="28" width="4" height="4" fill="black"/>
  <rect x="128" y="28" width="4" height="4" fill="black"/>
  <rect x="132" y="28" width="4" height="4" fill="black"/>
  <rect x="136" y="28" width="4" height="4" fill="black"/>
  <rect x="144" y="28" width="4" height="4" fill="black"/>
  <rect x="16" y="32" width="4" height="4" fill="black"/>
  <rect x="24" y="32" width="4" height="4" fill="black"/>
  <rect x="28" y="32" width="4" height="4" fill="black"/>
  <rect x="32" y="32" width="4" height="4" fill="black"/>
  <rect x="40" y="32" width="4" height="4" fill="black"/>
  <rect x="48" y="32" width="4" height="4" fill="black"/>
  <rect x="52" y="32" width="4" height="4" fill="black"/>
  <rect x="68" y="32" width="4" height="4" fill="black"/>
  <rect x="76" y="32" width="4" height="4" fill="black"/>
  <rect x="80" y="32" width="4" height="4" fill="black"/>
  <rect x="84" y="32" width="4" height="4" fill="black"/>
  <rect x="92" y="32" width="4" height="4" fill="black"/>
  <rect x="100" y="32" width="4" height="4" fill="black"/>
  <rect x="104" y="32" width="4" height="4" fill="black"/>
  <rect x="108" y="32" width="4" height="4" fill="black"/>
  <rect x="112" y="32" width="4" height="4" fill="black"/>
  <rect x="120" y="32" width="4" height="4" fill="black"/>
  <rect x="128" y="32" width="4" height="4" fill="black"/>
  <rect x="132" y="32" width="4" height="4" fill="black"/>
  <rect x="136" y="32" width="4" height="4" fill="black"/>
  <rect x="144" y="32" width="4" height="4" fill="black"/>
  <rect x="16" y="36" width="4" height="4" fill="black"/>
  <rect x="40" y="36" width="4" height="4" fill="black"/>
  <rect x="48" y="36" width="4" height="4" fill="black"/>
  <rect x="56" y="36" width="4" height="4" fill="black"/>
  <rect x="64" y="36" width="4" height="4" fill="black"/>
  <rect x="68" y="36" width="4" height="4" fill="black"/>
  <rect x="72" y="36" width="4" height="4" fill="black"/>
  <rect x="76" y="36" width="4" height="4" fill="black"/>
  <rect x="80" y="36" width="4" height="4" fill="black"/>
  <rect x="100" y="36" width="4" height="4" fill="black"/>
  <rect x="112" y="36" width="4" height="4" fill="black"/>
  <rect x="120" y="36" width="4" height="4" fill="black"/>
  <rect x="144" y="36" width="4" height="4" fill="black"/>
  <rect x="16" y="40" width="4" height="4" fill="black"/>
  <rect x="20" y="40" width="4" height="4" fill="black"/>
  <rect x="24" y="40" width="4" height="4" fill="black"/>
  <rect x="28" y="40" width="4" height="4" fill="black"/>
  <rect x="32" y="40" width="4" height="4" fill="black"/>
  <rect x="36" y="40" width="4" height="4" fill="black"/>
  <rect x="40" y="40" width="4" height="4" fill="black"/>
  <rect x="48" y="40" width="4" height="4" fill="black"/>
  <rect x="56" y="40" width="4" height="4" fill="black"/>
  <rect x="64" y="40" width="4" height="4" fill="black"/>
  <rect x="72" y="40" width="4" height="4" fill="black"/>
  <rect x="80" y="40" width="4" height="4" fill="black"/>
  <rect x="88" y="40" width="4" height="4" fill="black"/>
  <rect x="96" y="40" width="4" height="4" fill="black"/>
  <rect x="104" y="40" width="4" height="4" fill="black"/>
  <rect x="112" y="40" width="4" height="4" fill="black"/>
  <rect x="120" y="40" width="4" height="4" fill="black"/>
  <rect x="124" y="40" width="4" height="4" fill="black"/>
  <rect x="128" y="40" width="4" height="4" fill="black"/>
  <rect x="132" y="40" width="4" height="4" fill="black"/>
  <rect x="136" y="40" width="4" height="4" fill="black"/>
  <rect x="140" y="40" width="4" height="4" fill="black"/>
  <rect x="144" y="40" width="4" height="4" fill="black"/>
  <rect x="48" y="44" width="4" height="4" fill="black"/>
  <rect x="52" y="44" width="4" height="4" fill="black"/>
  <rect x="60" y="44" width="4" height="4" fill="black"/>
  <rect x="64" y="44" width="4" height="4" fill="black"/>
  <rect x="72" y="44" width="4" height="4" fill="black"/>
  <rect x="80" y="44" width="4" height="4" fill="black"/>
  <rect x="92" y="44" width="4" height="4" fill="black"/>
  <rect x="100" y="44" width="4" height="4" fill="black"/>
  <rect x="104" y="44" width="4" height="4" fill="black"/>
  <rect x="108" y="44" width="4" height="4" fill="black"/>
  <rect x="16" y="48" width="4" height="4" fill="black"/>
  <rect x="24" y="48" width="4" height="4" fill="black"/>
  <rect x="28" y="48" width="4" height="4" fill="black"/>
  <rect x="32" y="48" width="4" height="4" fill="black"/>
  <rect x="36" y="48" width="4" height="4" fill="black"/>
  <rect x="40" y="48" width="4" height="4" fill="black"/>
  <rect x="52" y="48" width="4" height="4" fill="black"/>
  <rect x="56" y="48" width="4" height="4" fill="black"/>
  <rect x="64" y="48" width="4" height="4" fill="black"/>
  <rect x="68" y="48" width="4" height="4" fill="black"/>
  <rect x="72" y="48" width="4" height="4" fill="black"/>
  <rect x="76" y="48" width="4" height="4" fill="black"/>
  <rect x="80" y="48" width="4" height="4" fill="black"/>
  <rect x="84" y="48" width="4" height="4" fill="black"/>
  <rect x="88" y="48" width="4" height="4" fill="black"/>
  <rect x="104" y="48" width="4" height="4" fill="black"/>
  <rect x="112" y="48" width="4" height="4" fill="black"/>
  <rect x="120" y="48" width="4" height="4" fill="black"/>
  <rect x="124" y="48" width="4" height="4" fill="black"/>
  <rect x="128" y="48" width="4" height="4" fill="black"/>
  <rect x="132" y="48" width="4" height="4" fill="black"/>
  <rect x="136" y="48" width="4" height="4" fill="black"/>
  <rect x="16" y="52" width="4" height="4" fill="black"/>
  <rect x="24" y="52" width="4" height="4" fill="black"/>
  <rect x="32" y="52" width="4" height="4" fill="black"/>
  <rect x="44" y="52" width="4" height="4" fill="black"/>
  <rect x="52" y="52" width="4" height="4" fill="black"/>
  <rect x="56" y="52" width="4" height="4" fill="black"/>
  <rect x="60" y="52" width="4" height="4" fill="black"/>
  <rect x="68" y="52" width="4" height="4" fill="black"/>
  <rect x="72" y="52" width="4" height="4" fill="black"/>
  <rect x="80" y="52" width="4" height="4" fill="black"/>
  <rect x="84" y="52" width="4" height="4" fill="black"/>
  <rect x="88" y="52" width="4" height="4" fill="black"/>
  <rect x="92" y="52" width="4" height="4" fill="black"/>
  <rect x="96" y="52" width="4" height="4" fill="black"/>
  <rect x="100" y="52" width="4" height="4" fill="black"/>
  <rect x="104" y="52" width="4" height="4" fill="black"/>
  <rect x="108" y="52" width="4" height="4" fill="black"/>
  <rect x="112" y="52" width="4" height="4" fill="black"/>
  <rect x="120" y="52" width="4" height="4" fill="black"/>
  <rect x="124" y="52" width="4" height="4" fill="black"/>
  <rect x="132" y="52" width="4" height="4" fill="black"/>
  <rect x="136" y="52" width="4" height="4" fill="black"/>
  <rect x="144" y="52" width="4" height="4" fill="black"/>
  <rect x="20" y="56" width="4" height="4" fill="black"/>
  <rect x="24" y="56" width="4" height="4" fill="black"/>
  <rect x="36" y="56" width="4" height="4" fill="black"/>
  <rect x="40" y="56" width="4" height="4" fill="black"/>
  <rect x="44" y="56" width="4" height="4" fill="black"/>
  <rect x="52" y="56" width="4" height="4" fill="black"/>
  <rect x="56" y="56" width="4" height="4" fill="black"/>
  <rect x="64" y="56" width="4" height="4" fill="black"/>
  <rect x="68" y="56" width="4" height="4" fill="black"/>
  <rect x="72" y="56" width="4" height="4" fill="black"/>
  <rect x="76" y="56" width="4" height="4" fill="black"/>
  <rect x="84" y="56" width="4" height="4" fill="black"/>
  <rect x="96" y="56" width="4" height="4" fill="black"/>
  <rect x="100" y="56" width="4" height="4" fill="black"/>
  <rect x="104" y="56" width="4" height="4" fill="black"/>
  <rect x="116" y="56" width="4" height="4" fill="black"/>
  <rect x="128" y="56" width="4" height="4" fill="black"/>
  <rect x="136" y="56" width="4" height="4" fill="black"/>
  <rect x="20" y="60" width="4" height="4" fill="black"/>
  <rect x="36" y="60" width="4" height="4" fill="black"/>
  <rect x="56" y="60" width="4" height="4" fill="black"/>
  <rect x="60" y="60" width="4" height="4" fill="black"/>
  <rect x="68" y="60" width="4" height="4" fill="black"/>
  <rect x="76" y="60" width="4" height="4" fill="black"/>
  <rect x="92" y="60" width="4" height="4" fill="black"/>
  <rect x="100" y="60" width="4" height="4" fill="black"/>
  <rect x="108" y="60" width="4" height="4" fill="black"/>
  <rect x="112" y="60" width="4" height="4" fill="black"/>
  <rect x="116" y="60" width="4" height="4" fill="black"/>
  <rect x="128" y="60" width="4" height="4" fill="black"/>
  <rect x="132" y="60" width="4" height="4" fill="black"/>
  <rect x="136" y="60" width="4" height="4" fill="black"/>
  <rect x="140" y="60" width="4" height="4" fill="black"/>
  <rect x="144" y="60" width="4" height="4" fill="black"/>
  <rect x="16" y="64" width="4" height="4" fill="black"/>
  <rect x="24" y="64" width="4" height="4" fill="black"/>
  <rect x="28" y="64" width="4" height="4" fill="black"/>
  <rect x="32" y="64" width="4" height="4" fill="black"/>
  <rect x="40" y="64" width="4" height="4" fill="black"/>
  <rect x="44" y="64" width="4" height="4" fill="black"/>
  <rect x="52" y="64" width="4" height="4" fill="black"/>
  <rect x="60" y="64" width="4" height="4" fill="black"/>
  <rect x="64" y="64" width="4" height="4" fill="black"/>
  <rect x="72" y="64" width="4" height="4" fill="black"/>
  <rect x="76" y="64" width="4" height="4" fill="black"/>
  <rect x="84" y="64" width="4" height="4" fill="black"/>
  <rect x="96" y="64" width="4" height="4" fill="black"/>
  <rect x="116" y="64" width="4" height="4" fill="black"/>
  <rect x="124" y="64" width="4" height="4" fill="black"/>
  <rect x="128" y="64" width="4" height="4" fill="black"/>
  <rect x="132" y="64" width="4" height="4" fill="black"/>
  <rect x="16" y="68" width="4" height="4" fill="black"/>
  <rect x="20" y="68" width="4" height="4" fill="black"/>
  <rect x="24" y="68" width="4" height="4" fill="black"/>
  <rect x="28" y="68" width="4" height="4" fill="black"/>
  <rect x="44" y="68" width="4" height="4" fill="black"/>
  <rect x="52" y="68" width="4" height="4" fill="black"/>
  <rect x="60" y="68" width="4" height="4" fill="black"/>
  <rect x="68" y="68" width="4" height="4" fill="black"/>
  <rect x="76" y="68" width="4" height="4" fill="black"/>
  <rect x="80" y="68" width="4" height="4" fill="black"/>
  <rect x="84" y="68" width="4" height="4" fill="black"/>
  <rect x="88" y="68" width="4" height="4" fill="black"/>
  <rect x="92" y="68" width="4" height="4" fill="black"/>
  <rect x="100" y="68" width="4" height="4" fill="black"/>
  <rect x="104" y="68" width="4" height="4" fill="black"/>
  <rect x="108" y="68" width="4" height="4" fill="black"/>
  <rect x="112" y="68" width="4" height="4" fill="black"/>
  <rect x="116" y="68" width="4" height="4" fill="black"/>
  <rect x="120" y="68" width="4" height="4" fill="black"/>
  <rect x="132" y="68" width="4" height="4" fill="black"/>
  <rect x="140" y="68" width="4" height="4" fill="black"/>
  <rect x="144" y="68" width="4" height="4" fill="black"/>
  <rect x="16" y="72" width="4" height="4" fill="black"/>
  <rect x="36" y="72" width="4" height="4" fill="black"/>
  <rect x="40" y="72" width="4" height="4" fill="black"/>
  <rect x="52" y="72" width="4" height="4" fill="black"/>
  <rect x="56" y="72" width="4" height="4" fill="black"/>
  <rect x="60" y="72" width="4" height="4" fill="black"/>
  <rect x="64" y="72" width="4" height="4" fill="black"/>
  <rect x="68" y="72" width="4" height="4" fill="black"/>
  <rect x="76" y="72" width="4" height="4" fill="black"/>
  <rect x="80" y="72" width="4" height="4" fill="black"/>
  <rect x="84" y="72" width="4" height="4" fill="black"/>
  <rect x="96" y="72" width="4" height="4" fill="black"/>
  <rect x="100" y="72" width="4" height="4" fill="black"/>
  <rect x="112" y="72" width="4" height="4" fill="black"/>
  <rect x="116" y="72" width="4" height="4" fill="black"/>
  <rect x="120" y="72" width="4" height="4" fill="black"/>
  <rect x="128" y="72" width="4" height="4" fill="black"/>
  <rect x="132" y="72" width="4" height="4" fill="black"/>
  <rect x="136" y="72" width="4" height="4" fill="black"/>
  <rect x="140" y="72" width="4" height="4" fill="black"/>
  <rect x="20" y="76" width="4" height="4" fill="black"/>
  <rect x="24" y="76" width="4" height="4" fill="black"/>
  <rect x="44" y="76" width="4" height="4" fill="black"/>
  <rect x="60" y="76" width="4" height="4" fill="black"/>
  <rect x="64" y="76" width="4" height="4" fill="black"/>
  <rect x="68" y="76" width="4" height="4" fill="black"/>
  <rect x="72" y="76" width="4" height="4" fill="black"/>
  <rect x="76" y="76" width="4" height="4" fill="black"/>
  <rect x="80" y="76" width="4" height="4" fill="black"/>
  <rect x="92" y="76" width="4" height="4" fill="black"/>
  <rect x="96" y="76" width="4" height="4" fill="black"/>
  <rect x="100" y="76" width="4" height="4" fill="black"/>
  <rect x="116" y="76" width="4" height="4" fill="black"/>
  <rect x="120" y="76" width="4" height="4" fill="black"/>
  <rect x="124" y="76" width="4" height="4" fill="black"/>
  <rect x="132" y="76" width="4" height="4" fill="black"/>
  <rect x="136" y="76" width="4" height="4" fill="black"/>
  <rect x="28" y="80" width="4" height="4" fill="black"/>
  <rect x="32" y="80" width="4" height="4" fill="black"/>
  <rect x="40" y="80" width="4" height="4" fill="black"/>
  <rect x="48" y="80" width="4" height="4" fill="black"/>
  <rect x="52" y="80" width="4" height="4" fill="black"/>
  <rect x="68" y="80" width="4" height="4" fill="black"/>
  <rect x="72" y="80" width="4" height="4" fill="black"/>
  <rect x="80" y="80" width="4" height="4" fill="black"/>
  <rect x="84" y="80" width="4" height="4" fill="black"/>
  <rect x="104" y="80" width="4" height="4" fill="black"/>
  <rect x="116" y="80" width="4" height="4" fill="black"/>
  <rect x="124" y="80" width="4" height="4" fill="black"/>
  <rect x="128" y="80" width="4" height="4" fill="black"/>
  <rect x="132" y="80" width="4" height="4" fill="black"/>
  <rect x="144" y="80" width="4" height="4" fill="black"/>
  <rect x="16" y="84" width="4" height="4" fill="black"/>
  <rect x="24" y="84" width="4" height="4" fill="black"/>
  <rect x="28" y="84" width="4" height="4" fill="black"/>
  <rect x="32" y="84" width="4" height="4" fill="black"/>
  <rect x="36" y="84" width="4" height="4" fill="black"/>
  <rect x="48" y="84" width="4" height="4" fill="black"/>
  <rect x="80" y="84" width="4" height="4" fill="black"/>
  <rect x="84" y="84" width="4" height="4" fill="black"/>
  <rect x="92" y="84" width="4" height="4" fill="black"/>
  <rect x="96" y="84" width="4" height="4" fill="black"/>
  <rect x="100" y="84" width="4" height="4" fill="black"/>
  <rect x="104" y="84" width="4" height="4" fill="black"/>
  <rect x="108" y="84" width="4" height="4" fill="black"/>
  <rect x="120" y="84" width="4" height="4" fill="black"/>
  <rect x="124" y="84" width="4" height="4" fill="black"/>
  <rect x="132" y="84" width="4" height="4" fill="black"/>
  <rect x="136" y="84" width="4" height="4" fill="black"/>
  <rect x="140" y="84" width="4" height="4" fill="black"/>
  <rect x="144" y="84" width="4" height="4" fill="black"/>
  <rect x="16" y="88" width="4" height="4" fill="black"/>
  <rect x="40" y="88" width="4" height="4" fill="black"/>
  <rect x="44" y="88" width="4" height="4" fill="black"/>
  <rect x="48" y="88" width="4" height="4" fill="black"/>
  <rect x="56" y="88" width="4" height="4" fill="black"/>
  <rect x="60" y="88" width="4" height="4" fill="black"/>
  <rect x="68" y="88" width="4" height="4" fill="black"/>
  <rect x="76" y="88" width="4" height="4" fill="black"/>
  <rect x="80" y="88" width="4" height="4" fill="black"/>
  <rect x="104" y="88" width="4" height="4" fill="black"/>
  <rect x="112" y="88" width="4" height="4" fill="black"/>
  <rect x="124" y="88" width="4" height="4" fill="black"/>
  <rect x="128" y="88" width="4" height="4" fill="black"/>
  <rect x="136" y="88" width="4" height="4" fill="black"/>
  <rect x="140" y="88" width="4" height="4" fill="black"/>
  <rect x="16" y="92" width="4" height="4" fill="black"/>
  <rect x="28" y="92" width="4" height="4" fill="black"/>
  <rect x="44" y="92" width="4" height="4" fill="black"/>
  <rect x="64" y="92" width="4" height="4" fill="black"/>
  <rect x="72" y="92" width="4" height="4" fill="black"/>
  <rect x="76" y="92" width="4" height="4" fill="black"/>
  <rect x="88" y="92" width="4" height="4" fill="black"/>
  <rect x="92" y="92" width="4" height="4" fill="black"/>
  <rect x="96" y="92" width="4" height="4" fill="black"/>
  <rect x="100" y="92" width="4" height="4" fill="black"/>
  <rect x="112" y="92" width="4" height="4" fill="black"/>
  <rect x="116" y="92" width="4" height="4" fill="black"/>
  <rect x="120" y="92" width="4" height="4" fill="black"/>
  <rect x="124" y="92" width="4" height="4" fill="black"/>
  <rect x="128" y="92" width="4" height="4" fill="black"/>
  <rect x="132" y="92" width="4" height="4" fill="black"/>
  <rect x="136" y="92" width="4" height="4" fill="black"/>
  <rect x="140" y="92" width="4" height="4" fill="black"/>
  <rect x="144" y="92" width="4" height="4" fill="black"/>
  <rect x="20" y="96" width="4" height="4" fill="black"/>
  <rect x="40" y="96" width="4" height="4" fill="black"/>
  <rect x="56" y="96" width="4" height="4" fill="black"/>
  <rect x="64" y="96" width="4" height="4" fill="black"/>
  <rect x="68" y="96" width="4" height="4" fill="black"/>
  <rect x="72" y="96" width="4" height="4" fill="black"/>
  <rect x="76" y="96" width="4" height="4" fill="black"/>
  <rect x="84" y="96" width="4" height="4" fill="black"/>
  <rect x="88" y="96" width="4" height="4" fill="black"/>
  <rect x="92" y="96" width="4" height="4" fill="black"/>
  <rect x="96" y="96" width="4" height="4" fill="black"/>
  <rect x="112" y="96" width="4" height="4" fill="black"/>
  <rect x="124" y="96" width="4" height="4" fill="black"/>
  <rect x="128" y="96" width="4" height="4" fill="black"/>
  <rect x="132" y="96" width="4" height="4" fill="black"/>
  <rect x="144" y="96" width="4" height="4" fill="black"/>
  <rect x="24" y="100" width="4" height="4" fill="black"/>
  <rect x="28" y="100" width="4" height="4" fill="black"/>
  <rect x="36" y="100" width="4" height="4" fill="black"/>
  <rect x="44" y="100" width="4" height="4" fill="black"/>
  <rect x="56" y="100" width="4" height="4" fill="black"/>
  <rect x="60" y="100" width="4" height="4" fill="black"/>
  <rect x="64" y="100" width="4" height="4" fill="black"/>
  <rect x="68" y="100" width="4" height="4" fill="black"/>
  <rect x="72" y="100" width="4" height="4" fill="black"/>
  <rect x="92" y="100" width="4" height="4" fill="black"/>
  <rect x="100" y="100" width="4" height="4" fill="black"/>
  <rect x="104" y="100" width="4" height="4" fill="black"/>
  <rect x="108" y="100" width="4" height="4" fill="black"/>
  <rect x="120" y="100" width="4" height="4" fill="black"/>
  <rect x="136" y="100" width="4" height="4" fill="black"/>
  <rect x="144" y="100" width="4" height="4" fill="black"/>
  <rect x="20" y="104" width="4" height="4" fill="black"/>
  <rect x="36" y="104" width="4" height="4" fill="black"/>
  <rect x="40" y="104" width="4" height="4" fill="black"/>
  <rect x="44" y="104" width="4" height="4" fill="black"/>
  <rect x="64" y="104" width="4" height="4" fill="black"/>
  <rect x="72" y="104" width="4" height="4" fill="black"/>
  <rect x="76" y="104" width="4" height="4" fill="black"/>
  <rect x="100" y="104" width="4" height="4" fill="black"/>
  <rect x="132" y="104" width="4" height="4" fill="black"/>
  <rect x="140" y="104" width="4" height="4" fill="black"/>
  <rect x="20" y="108" width="4" height="4" fill="black"/>
  <rect x="24" y="108" width="4" height="4" fill="black"/>
  <rect x="28" y="108" width="4" height="4" fill="black"/>
  <rect x="32" y="108" width="4" height="4" fill="black"/>
  <rect x="36" y="108" width="4" height="4" fill="black"/>
  <rect x="52" y="108" width="4" height="4" fill="black"/>
  <rect x="56" y="108" width="4" height="4" fill="black"/>
  <rect x="60" y="108" width="4" height="4" fill="black"/>
  <rect x="72" y="108" width="4" height="4" fill="black"/>
  <rect x="80" y="108" width="4" height="4" fill="black"/>
  <rect x="88" y="108" width="4" height="4" fill="black"/>
  <rect x="100" y="108" width="4" height="4" fill="black"/>
  <rect x="112" y="108" width="4" height="4" fill="black"/>
  <rect x="116" y="108" width="4" height="4" fill="black"/>
  <rect x="124" y="108" width="4" height="4" fill="black"/>
  <rect x="132" y="108" width="4" height="4" fill="black"/>
  <rect x="136" y="108" width="4" height="4" fill="black"/>
  <rect x="140" y="108" width="4" height="4" fill="black"/>
  <rect x="20" y="112" width="4" height="4" fill="black"/>
  <rect x="24" y="112" width="4" height="4" fill="black"/>
  <rect x="32" y="112" width="4" height="4" fill="black"/>
  <rect x="36" y="112" width="4" height="4" fill="black"/>
  <rect x="40" y="112" width="4" height="4" fill="black"/>
  <rect x="52" y="112" width="4" height="4" fill="black"/>
  <rect x="56" y="112" width="4" height="4" fill="black"/>
  <rect x="68" y="112" width="4" height="4" fill="black"/>
  <rect x="84" y="112" width="4" height="4" fill="black"/>
  <rect x="92" y="112" width="4" height="4" fill="black"/>
  <rect x="104" y="112" width="4" height="4" fill="black"/>
  <rect x="108" y="112" width="4" height="4" fill="black"/>
  <rect x="112" y="112" width="4" height="4" fill="black"/>
  <rect x="116" y="112" width="4" height="4" fill="black"/>
  <rect x="120" y="112" width="4" height="4" fill="black"/>
  <rect x="124" y="112" width="4" height="4" fill="black"/>
  <rect x="128" y="112" width="4" height="4" fill="black"/>
  <rect x="132" y="112" width="4" height="4" fill="black"/>
  <rect x="140" y="112" width="4" height="4" fill="black"/>
  <rect x="144" y="112" width="4" height="4" fill="black"/>
  <rect x="48" y="116" width="4" height="4" fill="black"/>
  <rect x="52" y="116" width="4" height="4" fill="black"/>
  <rect x="56" y="116" width="4" height="4" fill="black"/>
  <rect x="80" y="116" width="4" height="4" fill="black"/>
  <rect x="84" y="116" width="4" height="4" fill="black"/>
  <rect x="92" y="116" width="4" height="4" fill="black"/>
  <rect x="100" y="116" width="4" height="4" fill="black"/>
  <rect x="108" y="116" width="4" height="4" fill="black"/>
  <rect x="112" y="116" width="4" height="4" fill="black"/>
  <rect x="128" y="116" width="4" height="4" fill="black"/>
  <rect x="136" y="116" width="4" height="4" fill="black"/>
  <rect x="144" y="116" width="4" height="4" fill="black"/>
  <rect x="16" y="120" width="4" height="4" fill="black"/>
  <rect x="20" y="120" width="4" height="4" fill="black"/>
  <rect x="24" y="120" width="4" height="4" fill="black"/>
  <rect x="28" y="120" width="4" height="4" fill="black"/>
  <rect x="32" y="120" width="4" height="4" fill="black"/>
  <rect x="36" y="120" width="4" height="4" fill="black"/>
  <rect x="40" y="120" width="4" height="4" fill="black"/>
  <rect x="52" y="120" width="4" height="4" fill="black"/>
  <rect x="68" y="120" width="4" height="4" fill="black"/>
  <rect x="72" y="120" width="4" height="4" fill="black"/>
  <rect x="76" y="120" width="4" height="4" fill="black"/>
  <rect x="80" y="120" width="4" height="4" fill="black"/>
  <rect x="96" y="120" width="4" height="4" fill="black"/>
  <rect x="100" y="120" width="4" height="4" fill="black"/>
  <rect x="108" y="120" width="4" height="4" fill="black"/>
  <rect x="112" y="120" width="4" height="4" fill="black"/>
  <rect x="120" y="120" width="4" height="4" fill="black"/>
  <rect x="128" y="120" width="4" height="4" fill="black"/>
  <rect x="136" y="120" width="4" height="4" fill="black"/>
  <rect x="140" y="120" width="4" height="4" fill="black"/>
  <rect x="16" y="124" width="4" height="4" fill="black"/>
  <rect x="40" y="124" width="4" height="4" fill="black"/>
  <rect x="48" y="124" width="4" height="4" fill="black"/>
  <rect x="52" y="124" width="4" height="4" fill="black"/>
  <rect x="56" y="124" width="4" height="4" fill="black"/>
  <rect x="72" y="124" width="4" height="4" fill="black"/>
  <rect x="80" y="124" width="4" height="4" fill="black"/>
  <rect x="96" y="124" width="4" height="4" fill="black"/>
  <rect x="100" y="124" width="4" height="4" fill="black"/>
  <rect x="104" y="124" width="4" height="4" fill="black"/>
  <rect x="108" y="124" width="4" height="4" fill="black"/>
  <rect x="112" y="124" width="4" height="4" fill="black"/>
  <rect x="128" y="124" width="4" height="4" fill="black"/>
  <rect x="132" y="124" width="4" height="4" fill="black"/>
  <rect x="136" y="124" width="4" height="4" fill="black"/>
  <rect x="140" y="124" width="4" height="4" fill="black"/>
  <rect x="144" y="124" width="4" height="4" fill="black"/>
  <rect x="16" y="128" width="4" height="4" fill="black"/>
  <rect x="24" y="128" width="4" height="4" fill="black"/>
  <rect x="28" y="128" width="4" height="4" fill="black"/>
  <rect x="32" y="128" width="4" height="4" fill="black"/>
  <rect x="40" y="128" width="4" height="4" fill="black"/>
  <rect x="48" y="128" width="4" height="4" fill="black"/>
  <rect x="64" y="128" width="4" height="4" fill="black"/>
  <rect x="72" y="128" width="4" height="4" fill="black"/>
  <rect x="84" y="128" width="4" height="4" fill="black"/>
  <rect x="96" y="128" width="4" height="4" fill="black"/>
  <rect x="112" y="128" width="4" height="4" fill="black"/>
  <rect x="116" y="128" width="4" height="4" fill="black"/>
  <rect x="120" y="128" width="4" height="4" fill="black"/>
  <rect x="124" y="128" width="4" height="4" fill="black"/>
  <rect x="128" y="128" width="4" height="4" fill="black"/>
  <rect x="132" y="128" width="4" height="4" fill="black"/>
  <rect x="16" y="132" width="4" height="4" fill="black"/>
  <rect x="24" y="132" width="4" height="4" fill="black"/>
  <rect x="28" y="132" width="4" height="4" fill="black"/>
  <rect x="32" y="132" width="4" height="4" fill="black"/>
  <rect x="40" y="132" width="4" height="4" fill="black"/>
  <rect x="48" y="132" width="4" height="4" fill="black"/>
  <rect x="52" y="132" width="4" height="4" fill="black"/>
  <rect x="60" y="132" width="4" height="4" fill="black"/>
  <rect x="72" y="132" width="4" height="4" fill="black"/>
  <rect x="80" y="132" width="4" height="4" fill="black"/>
  <rect x="88" y="132" width="4" height="4" fill="black"/>
  <rect x="92" y="132" width="4" height="4" fill="black"/>
  <rect x="104" y="132" width="4" height="4" fill="black"/>
  <rect x="112" y="132" width="4" height="4" fill="black"/>
  <rect x="116" y="132" width="4" height="4" fill="black"/>
  <rect x="128" y="132" width="4" height="4" fill="black"/>
  <rect x="136" y="132" width="4" height="4" fill="black"/>
  <rect x="140" y="132" width="4" height="4" fill="black"/>
  <rect x="144" y="132" width="4" height="4" fill="black"/>
  <rect x="16" y="136" width="4" height="4" fill="black"/>
  <rect x="24" y="136" width="4" height="4" fill="black"/>
  <rect x="28" y="136" width="4" height="4" fill="black"/>
  <rect x="32" y="136" width="4" height="4" fill="black"/>
  <rect x="40" y="136" width="4" height="4" fill="black"/>
  <rect x="48" y="136" width="4" height="4" fill="black"/>
  <rect x="52" y="136" width="4" height="4" fill="black"/>
  <rect x="60" y="136" width="4" height="4" fill="black"/>
  <rect x="76" y="136" width="4" height="4" fill="black"/>
  <rect x="80" y="136" width="4" height="4" fill="black"/>
  <rect x="84" y="136" width="4" height="4" fill="black"/>
  <rect x="96" y="136" width="4" height="4" fill="black"/>
  <rect x="100" y="136" width="4" height="4" fill="black"/>
  <rect x="104" y="136" width="4" height="4" fill="black"/>
  <rect x="112" y="136" width="4" height="4" fill="black"/>
  <rect x="116" y="136" width="4" height="4" fill="black"/>
  <rect x="120" y="136" width="4" height="4" fill="black"/>
  <rect x="124" y="136" width="4" height="4" fill="black"/>
  <rect x="136" y="136" width="4" height="4" fill="black"/>
  <rect x="16" y="140" width="4" height="4" fill="black"/>
  <rect x="40" y="140" width="4" height="4" fill="black"/>
  <rect x="60" y="140" width="4" height="4" fill="black"/>
  <rect x="64" y="140" width="4" height="4" fill="black"/>
  <rect x="72" y="140" width="4" height="4" fill="black"/>
  <rect x="76" y="140" width="4" height="4" fill="black"/>
  <rect x="80" y="140" width="4" height="4" fill="black"/>
  <rect x="100" y="140" width="4" height="4" fill="black"/>
  <rect x="116" y="140" width="4" height="4" fill="black"/>
  <rect x="120" y="140" width="4" height="4" fill="black"/>
  <rect x="128" y="140" width="4" height="4" fill="black"/>
  <rect x="132" y="140" width="4" height="4" fill="black"/>
  <rect x="136" y="140" width="4" height="4" fill="black"/>
  <rect x="16" y="144" width="4" height="4" fill="black"/>
  <rect x="20" y="144" width="4" height="4" fill="black"/>
  <rect x="24" y="144" width="4" height="4" fill="black"/>
  <rect x="28" y="144" width="4" height="4" fill="black"/>
  <rect x="32" y="144" width="4" height="4" fill="black"/>
  <rect x="36" y="144" width="4" height="4" fill="black"/>
  <rect x="40" y="144" width="4" height="4" fill="black"/>
  <rect x="48" y="144" width="4" height="4" fill="black"/>
  <rect x="56" y="144" width="4" height="4" fill="black"/>
  <rect x="72" y="144" width="4" height="4" fill="black"/>
  <rect x="76" y="144" width="4" height="4" fill="black"/>
  <rect x="84" y="144" width="4" height="4" fill="black"/>
  <rect x="88" y="144" width="4" height="4" fill="black"/>
  <rect x="104" y="144" width="4" height="4" fill="black"/>
  <rect x="108" y="144" width="4" height="4" fill="black"/>
  <rect x="112" y="144" width="4" height="4" fill="black"/>
  <rect x="116" y="144" width="4" height="4" fill="black"/>
  <rect x="120" y="144" width="4" height="4" fill="black"/>
  <rect x="124" y="144" width="4" height="4" fill="black"/>
  <rect x="140" y="144" width="4" height="4" fill="black"/>
</svg>