<svg width="196" height="196" xmlns="http://www.w3.org/2000/svg" shape-rendering="crispEdges">
  <rect width="100%" height="100%" fill="white"/>
  <rect x="16" y="16" width="4" height="4" fill="black"/>
  <rect x="20" y="16" width="4" height="4" fill="black"/>
  <rect x="24" y="16" width="4" height="4" fill="black"/>
  <rect x="28" y="16" width="4" height="4" fill="black"/>
  <rect x="32" y="16" width="4" height="4" fill="black"/>
  <rect x="36" y="16" width="4" height="4" fill="black"/>
  <rect x="40" y="16" width="4" height="4" fill="black"/>
  <rect x="56" y="16" width="4" height="4" fill="black"/>
  <rect x="60" y="16" width="4" height="4" fill="black"/>
  <rect x="64" y="16" width="4" height="4" fill="black"/>
  <rect x="80" y="16" width="4" height="4" fill="black"/>
  <rect x="88" y="16" width="4" height="4" fill="black"/>
  <rect x="100" y="16" width="4" height="4" fill="black"/>
  <rect x="116" y="16" width="4" height="4" fill="black"/>
  <rect x="120" y="16" width="4" height="4" fill="black"/>
  <rect x="132" y="16" width="4" height="4" fill="black"/>
  <rect x="152" y="16" width="4" height="4" fill="black"/>
  <rect x="156" y="16" width="4" height="4" fill="black"/>
  <rect x="160" y="16" width="4" height="4" fill="black"/>
  <rect x="164" y="16" width="4" height="4" fill="black"/>
  <rect x="168" y="16" width="4" height="4" fill="black"/>
  <rect x="172" y="16" width="4" height="4" fill="black"/>
  <rect x="176" y="16" width="4" height="4" fill="black"/>
  <rect x="16" y="20" width="4" height="4" fill="black"/>
  <rect x="40" y="20" width="4" height="4" fill="black"/>
  <rect x="48" y="20" width="4" height="4" fill="black"/>
  <rect x="56" y="20" width="4" height="4" fill="black"/>
  <rect x="64" y="20" width="4" height="4" fill="black"/>
  <rect x="80" y="20" width="4" height="4" fill="black"/>
  <rect x="84" y="20" width="4" height="4" fill="black"/>
  <rect x="96" y="20" width="4" height="4" fill="black"/>
  <rect x="112" y="20" width="4" height="4" fill="black"/>
  <rect x="116" y="20" width="4" height="4" fill="black"/>
  <rect x="128" y="20" width="4" height="4" fill="black"/>
  <rect x="132" y="20" width="4" height="4" fill="black"/>
  <rect x="136" y="20" width="4" height="4" fill="black"/>
  <rect x="144" y="20" width="4" height="4" fill="black"/>
  <rect x="152" y="20" width="4" height="4" fill="black"/>
  <rect x="176" y="20" width="4" height="4" fill="black"/>
  <rect x="16" y="24" width="4" height="4" fill="black"/>
  <rect x="24" y="24" width="4" height="4" fill="black"/>
  <rect x="28" y="24" width="4" height="4" fill="black"/>
  <rect x="32" y="24" width="4" height="4" fill="black"/>
  <rect x="40" y="24" width="4" height="4" fill="black"/>
  <rect x="48" y="24" width="4" height="4" fill="black"/>
  <rect x="52" y="24" width="4" height="4" fill="black"/>
  <rect x="56" y="24" width="4" height="4" fill="black"/>
  <rect x="64" y="24" width="4" height="4" fill="black"/>
  <rect x="76" y="24" width="4" height="4" fill="black"/>
  <rect x="84" y="24" width="4" height="4" fill="black"/>
  <rect x="88" y="24" width="4" height="4" fill="black"/>
  <rect x="100" y="24" width="4" height="4" fill="black"/>
  <rect x="104" y="24" width="4" height="4" fill="black"/>
  <rect x="108" y="24" width="4" height="4" fill="black"/>
  <rect x="124" y="24" width="4" height="4" fill="black"/>
  <rect x="136" y="24" width="4" height="4" fill="black"/>
  <rect x="152" y="24" width="4" height="4" fill="black"/>
  <rect x="160" y="24" width="4" height="4" fill="black"/>
  <rect x="164" y="24" width="4" height="4" fill="black"/>
  <rect x="168" y="24" width="4" height="4" fill="black"/>
  <rect x="176" y="24" width="4" height="4" fill="black"/>
  <rect x="16" y="28" width="4" height="4" fill="black"/>
  <rect x="24" y="28" width="4" height="4" fill="black"/>
  <rect x="28" y="28" width="4" height="4" fill="black"/>
  <rect x="32" y="28" width="4" height="4" fill="black"/>
  <rect x="40" y="28" width="4" height="4" fill="black"/>
  <rect x="48" y="28" width="4" height="4" fill="black"/>
  <rect x="60" y="28" width="4" height="4" fill="black"/>
  <rect x="64" y="28" width="4" height="4" fill="black"/>
  <rect x="68" y="28" width="4" height="4" fill="black"/>
  <rect x="72" y="28" width="4" height="4" fill="black"/>
  <rect x="104" y="28" width="4" height="4" fill="black"/>
  <rect x="108" y="28" width="4" height="4" fill="black"/>
  <rect x="116" y="28" width="4" height="4" fill="black"/>
  <rect x="124" y="28" width="4" height="4" fill="black"/>
  <rect x="128" y="28" width="4" height="4" fill="black"/>
  <rect x="144" y="28" width="4" height="4" fill="black"/>
  <rect x="152" y="28" width="4" height="4" fill="black"/>
  <rect x="160" y="28" width="4" height="4" fill="black"/>
  <rect x="164" y="28" width="4" height="4" fill="black"/>
  <rect x="168" y="28" width="4" height="4" fill="black"/>
  <rect x="176" y="28" width="4" height="4" fill="black"/>
  <rect x="16" y="32" width="4" height="4" fill="black"/>
  <rect x="24" y="32" width="4" height="4" fill="black"/>
  <rect x="28" y="32" width="4" height="4" fill="black"/>
  <rect x="32" y="32" width="4" height="4" fill="black"/>
  <rect x="40" y="32" width="4" height="4" fill="black"/>
  <rect x="52" y="32" width="4" height="4" fill="black"/>
  <rect x="56" y="32" width="4" height="4" fill="black"/>
  <rect x="68" y="32" width="4" height="4" fill="black"/>
  <rect x="72" y="32" width="4" height="4" fill="black"/>
  <rect x="76" y="32" width="4" height="4" fill="black"/>
  <rect x="80" y="32" width="4" height="4" fill="black"/>
  <rect x="84" y="32" width="4" height="4" fill="black"/>
  <rect x="88" y="32" width="4" height="4" fill="black"/>
  <rect x="92" y="32" width="4" height="4" fill="black"/>
  <rect x="96" y="32" width="4" height="4" fill="black"/>
  <rect x="100" y="32" width="4" height="4" fill="black"/>
  <rect x="104" y="32" width="4" height="4" fill="black"/>
  <rect x="108" y="32" width="4" height="4" fill="black"/>
  <rect x="112" y="32" width="4" height="4" fill="black"/>
  <rect x="128" y="32" width="4" height="4" fill="black"/>
  <rect x="140" y="32" width="4" height="4" fill="black"/>
  <rect x="144" y="32" width="4" height="4" fill="black"/>
  <rect x="152" y="32" width="4" height="4" fill="black"/>
  <rect x="160" y="32" width="4" height="4" fill="black"/>
  <rect x="164" y="32" width="4" height="4" fill="black"/>
  <rect x="168" y="32" width="4" height="4" fill="black"/>
  <rect x="176" y="32" width="4" height="4" fill="black"/>
  <rect x="16" y="36" width="4" height="4" fill="black"/>
  <rect x="40" y="36" width="4" height="4" fill="black"/>
  <rect x="52" y="36" width="4" height="4" fill="black"/>
  <rect x="64" y="36" width="4" height="4" fill="black"/>
  <rect x="68" y="36" width="4" height="4" fill="black"/>
  <rect x="72" y="36" width="4" height="4" fill="black"/>
  <rect x="76" y="36" width="4" height="4" fill="black"/>
  <rect x="80" y="36" width="4" height="4" fill="black"/>
  <rect x="84" y="36" width="4" height="4" fill="black"/>
  <rect x="104" y="36" width="4" height="4" fill="black"/>
  <rect x="112" y="36" width="4" height="4" fill="black"/>
  <rect x="116" y="36" width="4" height="4" fill="black"/>
  <rect x="120" y="36" width="4" height="4" fill="black"/>
  <rect x="128" y="36" width="4" height="4" fill="black"/>
  <rect x="136" y="36" width="4" height="4" fill="black"/>
  <rect x="144" y="36" width="4" height="4" fill="black"/>
  <rect x="152" y="36" width="4" height="4" fill="black"/>
  <rect x="176" y="36" width="4" height="4" fill="black"/>
  <rect x="16" y="40" width="4" height="4" fill="black"/>
  <rect x="20" y="40" width="4" height="4" fill="black"/>
  <rect x="24" y="40" width="4" height="4" fill="black"/>
  <rect x="28" y="40" width="4" height="4" fill="black"/>
  <rect x="32" y="40" width="4" height="4" fill="black"/>
  <rect x="36" y="40" width="4" height="4" fill="black"/>
  <rect x="40" y="40" width="4" height="4" fill="black"/>
  <rect x="48" y="40" width="4" height="4" fill="black"/>
  <rect x="56" y="40" width="4" height="4" fill="black"/>
  <rect x="64" y="40" width="4" height="4" fill="black"/>
  <rect x="72" y="40" width="4" height="4" fill="black"/>
  <rect x="80" y="40" width="4" height="4" fill="black"/>
  <rect x="88" y="40" width="4" height="4" fill="black"/>
  <rect x="96" y="40" width="4" height="4" fill="black"/>
  <rect x="104" y="40" width="4" height="4" fill="black"/>
  <rect x="112" y="40" width="4" height="4" fill="black"/>
  <rect x="120" y="40" width="4" height="4" fill="black"/>
  <rect x="128" y="40" width="4" height="4" fill="black"/>
  <rect x="136" y="40" width="4" height="4" fill="black"/>
  <rect x="144" y="40" width="4" height="4" fill="black"/>
  <rect x="152" y="40" width="4" height="4" fill="black"/>
  <rect x="156" y="40" width="4" height="4" fill="black"/>
  <rect x="160" y="40" width="4" height="4" fill="black"/>
  <rect x="164" y="40" width="4" height="4" fill="black"/>
  <rect x="168" y="40" width="4" height="4" fill="black"/>
  <rect x="172" y="40" width="4" height="4" fill="black"/>
  <rect x="176" y="40" width="4" height="4" fill="black"/>
  <rect x="48" y="44" width="4" height="4" fill="black"/>
  <rect x="52" y="44" width="4" height="4" fill="black"/>
  <rect x="60" y="44" width="4" height="4" fill="black"/>
  <rect x="68" y="44" width="4" height="4" fill="black"/>
  <rect x="72" y="44" width="4" height="4" fill="black"/>
  <rect x="92" y="44" width="4" height="4" fill="black"/>
  <rect x="96" y="44" width="4" height="4" fill="black"/>
  <rect x="104" y="44" width="4" height="4" fill="black"/>
  <rect x="120" y="44" width="4" height="4" fill="black"/>
  <rect x="136" y="44" width="4" height="4" fill="black"/>
  <rect x="140" y="44" width="4" height="4" fill="black"/>
  <rect x="144" y="44" width="4" height="4" fill="black"/>
  <rect x="16" y="48" width="4" height="4" fill="black"/>
  <rect x="40" y="48" width="4" height="4" fill="black"/>
  <rect x="48" y="48" width="4" height="4" fill="black"/>
  <rect x="52" y="48" width="4" height="4" fill="black"/>
  <rect x="64" y="48" width="4" height="4" fill="black"/>
  <rect x="72" y="48" width="4" height="4" fill="black"/>
  <rect x="84" y="48" width="4" height="4" fill="black"/>
  <rect x="92" y="48" width="4" height="4" fill="black"/>
  <rect x="112" y="48" width="4" height="4" fill="black"/>
  <rect x="116" y="48" width="4" height="4" fill="black"/>
  <rect x="120" y="48" width="4" height="4" fill="black"/>
  <rect x="132" y="48" width="4" height="4" fill="black"/>
  <rect x="140" y="48" width="4" height="4" fill="black"/>
  <rect x="144" y="48" width="4" height="4" fill="black"/>
  <rect x="148" y="48" width="4" height="4" fill="black"/>
  <rect x="152" y="48" width="4" height="4" fill="black"/>
  <rect x="164" y="48" width="4" height="4" fill="black"/>
  <rect x="168" y="48" width="4" height="4" fill="black"/>
  <rect x="172" y="48" width="4" height="4" fill="black"/>
  <rect x="16" y="52" width="4" height="4" fill="black"/>
  <rect x="20" y="52" width="4" height="4" fill="black"/>
  <rect x="24" y="52" width="4" height="4" fill="black"/>
  <rect x="28" y="52" width="4" height="4" fill="black"/>
  <rect x="32" y="52" width="4" height="4" fill="black"/>
  <rect x="80" y="52" width="4" height="4" fill="black"/>
  <rect x="92" y="52" width="4" height="4" fill="black"/>
  <rect x="96" y="52" width="4" height="4" fill="black"/>
  <rect x="100" y="52" width="4" height="4" fill="black"/>
  <rect x="104" y="52" width="4" height="4" fill="black"/>
  <rect x="108" y="52" width="4" height="4" fill="black"/>
  <rect x="116" y="52" width="4" height="4" fill="black"/>
  <rect x="120" y="52" width="4" height="4" fill="black"/>
  <rect x="124" y="52" width="4" height="4" fill="black"/>
  <rect x="136" y="52" width="4" height="4" fill="black"/>
  <rect x="140" y="52" width="4" height="4" fill="black"/>
  <rect x="160" y="52" width="4" height="4" fill="black"/>
  <rect x="16" y="56" width="4" height="4" fill="black"/>
  <rect x="24" y="56" width="4" height="4" fill="black"/>
  <rect x="32" y="56" width="4" height="4" fill="black"/>
  <rect x="36" y="56" width="4" height="4" fill="black"/>
  <rect x="40" y="56" width="4" height="4" fill="black"/>
  <rect x="56" y="56" width="4" height="4" fill="black"/>
  <rect x="60" y="56" width="4" height="4" fill="black"/>
  <rect x="68" y="56" width="4" height="4" fill="black"/>
  <rect x="80" y="56" width="4" height="4" fill="black"/>
  <rect x="84" y="56" width="4" height="4" fill="black"/>
  <rect x="88" y="56" width="4" height="4" fill="black"/>
  <rect x="96" y="56" width="4" height="4" fill="black"/>
  <rect x="100" y="56" width="4" height="4" fill="black"/>
  <rect x="104" y="56" width="4" height="4" fill="black"/>
  <rect x="112" y="56" width="4" height="4" fill="black"/>
  <rect x="120" y="56" width="4" height="4" fill="black"/>
  <rect x="124" y="56" width="4" height="4" fill="black"/>
  <rect x="144" y="56" width="4" height="4" fill="black"/>
  <rect x="160" y="56" width="4" height="4" fill="black"/>
  <rect x="16" y="60" width="4" height="4" fill="black"/>
  <rect x="64" y="60" width="4" height="4" fill="black"/>
  <rect x="96" y="60" width="4" height="4" fill="black"/>
  <rect x="104" y="60" width="4" height="4" fill="black"/>
  <rect x="124" y="60" width="4" height="4" fill="black"/>
  <rect x="128" y="60" width="4" height="4" fill="black"/>
  <rect x="136" y="60" width="4" height="4" fill="black"/>
  <rect x="140" y="60" width="4" height="4" fill="black"/>
  <rect x="144" y="60" width="4" height="4" fill="black"/>
  <rect x="156" y="60" width="4" height="4" fill="black"/>
  <rect x="160" y="60" width="4" height="4" fill="black"/>
  <rect x="164" y="60" width="4" height="4" fill="black"/>
  <rect x="172" y="60" width="4" height="4" fill="black"/>
  <rect x="16" y="64" width="4" height="4" fill="black"/>
  <rect x="20" y="64" width="4" height="4" fill="black"/>
  <rect x="28" y="64" width="4" height="4" fill="black"/>
  <rect x="32" y="64" width="4" height="4" fill="black"/>
  <rect x="40" y="64" width="4" height="4" fill="black"/>
  <rect x="48" y="64" width="4" height="4" fill="black"/>
  <rect x="52" y="64" width="4" height="4" fill="black"/>
  <rect x="56" y="64" width="4" height="4" fill="black"/>
  <rect x="60" y="64" width="4" height="4" fill="black"/>
  <rect x="72" y="64" width="4" height="4" fill="black"/>
  <rect x="76" y="64" width="4" height="4" fill="black"/>
  <rect x="112" y="64" width="4" height="4" fill="black"/>
  <rect x="144" y="64" width="4" height="4" fill="black"/>
  <rect x="148" y="64" width="4" height="4" fill="black"/>
  <rect x="152" y="64" width="4" height="4" fill="black"/>
  <rect x="172" y="64" width="4" height="4" fill="black"/>
  <rect x="16" y="68" width="4" height="4" fill="black"/>
  <rect x="20" y="68" width="4" height="4" fill="black"/>
  <rect x="28" y="68" width="4" height="4" fill="black"/>
  <rect x="32" y="68" width="4" height="4" fill="black"/>
  <rect x="52" y="68" width="4" height="4" fill="black"/>
  <rect x="56" y="68" width="4" height="4" fill="black"/>
  <rect x="68" y="68" width="4" height="4" fill="black"/>
  <rect x="84" y="68" width="4" height="4" fill="black"/>
  <rect x="88" y="68" width="4" height="4" fill="black"/>
  <rect x="116" y="68" width="4" height="4" fill="black"/>
  <rect x="120" y="68" width="4" height="4" fill="black"/>
  <rect x="124" y="68" width="4" height="4" fill="black"/>
  <rect x="128" y="68" width="4" height="4" fill="black"/>
  <rect x="136" y="68" width="4" height="4" fill="black"/>
  <rect x="140" y="68" width="4" height="4" fill="black"/>
  <rect x="144" y="68" width="4" height="4" fill="black"/>
  <rect x="148" y="68" width="4" height="4" fill="black"/>
  <rect x="152" y="68" width="4" height="4" fill="black"/>
  <rect x="156" y="68" width="4" height="4" fill="black"/>
  <rect x="160" y="68" width="4" height="4" fill="black"/>
  <rect x="176" y="68" width="4" height="4" fill="black"/>
  <rect x="20" y="72" width="4" height="4" fill="black"/>
  <rect x="24" y="72" width="4" height="4" fill="black"/>
  <rect x="28" y="72" width="4" height="4" fill="black"/>
  <rect x="40" y="72" width="4" height="4" fill="black"/>
  <rect x="72" y="72" width="4" height="4" fill="black"/>
  <rect x="96" y="72" width="4" height="4" fill="black"/>
  <rect x="100" y="72" width="4" height="4" fill="black"/>
  <rect x="104" y="72" width="4" height="4" fill="black"/>
  <rect x="108" y="72" width="4" height="4" fill="black"/>
  <rect x="112" y="72" width="4" height="4" fill="black"/>
  <rect x="120" y="72" width="4" height="4" fill="black"/>
  <rect x="124" y="72" width="4" height="4" fill="black"/>
  <rect x="128" y="72" width="4" height="4" fill="black"/>
  <rect x="132" y="72" width="4" height="4" fill="black"/>
  <rect x="136" y="72" width="4" height="4" fill="black"/>
  <rect x="144" y="72" width="4" height="4" fill="black"/>
  <rect x="148" y="72" width="4" height="4" fill="black"/>
  <rect x="156" y="72" width="4" height="4" fill="black"/>
  <rect x="160" y="72" width="4" height="4" fill="black"/>
  <rect x="168" y="72" width="4" height="4" fill="black"/>
  <rect x="16" y="76" width="4" height="4" fill="black"/>
  <rect x="28" y="76" width="4" height="4" fill="black"/>
  <rect x="36" y="76" width="4" height="4" fill="black"/>
  <rect x="44" y="76" width="4" height="4" fill="black"/>
  <rect x="52" y="76" width="4" height="4" fill="black"/>
  <rect x="56" y="76" width="4" height="4" fill="black"/>
  <rect x="72" y="76" width="4" height="4" fill="black"/>
  <rect x="76" y="76" width="4" height="4" fill="black"/>
  <rect x="80" y="76" width="4" height="4" fill="black"/>
  <rect x="96" y="76" width="4" height="4" fill="black"/>
  <rect x="104" y="76" width="4" height="4" fill="black"/>
  <rect x="108" y="76" width="4" height="4" fill="black"/>
  <rect x="120" y="76" width="4" height="4" fill="black"/>
  <rect x="128" y="76" width="4" height="4" fill="black"/>
  <rect x="136" y="76" width="4" height="4" fill="black"/>
  <rect x="148" y="76" width="4" height="4" fill="black"/>
  <rect x="160" y="76" width="4" height="4" fill="black"/>
  <rect x="164" y="76" width="4" height="4" fill="black"/>
  <rect x="168" y="76" width="4" height="4" fill="black"/>
  <rect x="172" y="76" width="4" height="4" fill="black"/>
  <rect x="28" y="80" width="4" height="4" fill="black"/>
  <rect x="40" y="80" width="4" height="4" fill="black"/>
  <rect x="48" y="80" width="4" height="4" fill="black"/>
  <rect x="52" y="80" width="4" height="4" fill="black"/>
  <rect x="56" y="80" width="4" height="4" fill="black"/>
  <rect x="60" y="80" width="4" height="4" fill="black"/>
  <rect x="68" y="80" width="4" height="4" fill="black"/>
  <rect x="84" y="80" width="4" height="4" fill="black"/>
  <rect x="108" y="80" width="4" height="4" fill="black"/>
  <rect x="112" y="80" width="4" height="4" fill="black"/>
  <rect x="116" y="80" width="4" height="4" fill="black"/>
  <rect x="120" y="80" width="4" height="4" fill="black"/>
  <rect x="124" y="80" width="4" height="4" fill="black"/>
  <rect x="132" y="80" width="4" height="4" fill="black"/>
  <rect x="148" y="80" width="4" height="4" fill="black"/>
  <rect x="156" y="80" width="4" height="4" fill="black"/>
  <rect x="168" y="80" width="4" height="4" fill="black"/>
  <rect x="172" y="80" width="4" height="4" fill="black"/>
  <rect x="24" y="84" width="4" height="4" fill="black"/>
  <rect x="28" y="84" width="4" height="4" fill="black"/>
  <rect x="36" y="84" width="4" height="4" fill="black"/>
  <rect x="56" y="84" width="4" height="4" fill="black"/>
  <rect x="60" y="84" width="4" height="4" fill="black"/>
  <rect x="64" y="84" width="4" height="4" fill="black"/>
  <rect x="68" y="84" width="4" height="4" fill="black"/>
  <rect x="72" y="84" width="4" height="4" fill="black"/>
  <rect x="76" y="84" width="4" height="4" fill="black"/>
  <rect x="92" y="84" width="4" height="4" fill="black"/>
  <rect x="96" y="84" width="4" height="4" fill="black"/>
  <rect x="100" y="84" width="4" height="4" fill="black"/>
  <rect x="108" y="84" width="4" height="4" fill="black"/>
  <rect x="124" y="84" width="4" height="4" fill="black"/>
  <rect x="128" y="84" width="4" height="4" fill="black"/>
  <rect x="132" y="84" width="4" height="4" fill="black"/>
  <rect x="140" y="84" width="4" height="4" fill="black"/>
  <rect x="144" y="84" width="4" height="4" fill="black"/>
  <rect x="148" y="84" width="4" height="4" fill="black"/>
  <rect x="152" y="84" width="4" height="4" fill="black"/>
  <rect x="156" y="84" width="4" height="4" fill="black"/>
  <rect x="160" y="84" width="4" height="4" fill="black"/>
  <rect x="164" y="84" width="4" height="4" fill="black"/>
  <rect x="168" y="84" width="4" height="4" fill="black"/>
  <rect x="172" y="84" width="4" height="4" fill="black"/>
  <rect x="176" y="84" width="4" height="4" fill="black"/>
  <rect x="16" y="88" width="4" height="4" fill="black"/>
  <rect x="32" y="88" width="4" height="4" fill="black"/>
  <rect x="36" y="88" width="4" height="4" fill="black"/>
  <rect x="40" y="88" width="4" height="4" fill="black"/>
  <rect x="48" y="88" width="4" height="4" fill="black"/>
  <rect x="56" y="88" width="4" height="4" fill="black"/>
  <rect x="64" y="88" width="4" height="4" fill="black"/>
  <rect x="68" y="88" width="4" height="4" fill="black"/>
  <rect x="72" y="88" width="4" height="4" fill="black"/>
  <rect x="76" y="88" width="4" height="4" fill="black"/>
  <rect x="80" y="88" width="4" height="4" fill="black"/>
  <rect x="84" y="88" width="4" height="4" fill="black"/>
  <rect x="88" y="88" width="4" height="4" fill="black"/>
  <rect x="92" y="88" width="4" height="4" fill="black"/>
  <rect x="108" y="88" width="4" height="4" fill="black"/>
  <rect x="116" y="88" width="4" height="4" fill="black"/>
  <rect x="124" y="88" width="4" height="4" fill="black"/>
  <rect x="128" y="88" width="4" height="4" fill="black"/>
  <rect x="140" y="88" width="4" height="4" fill="black"/>
  <rect x="148" y="88" width="4" height="4" fill="black"/>
  <rect x="152" y="88" width="4" height="4" fill="black"/>
  <rect x="156" y="88" width="4" height="4" fill="black"/>
  <rect x="160" y="88" width="4" height="4" fill="black"/>
  <rect x="164" y="88" width="4" height="4" fill="black"/>
  <rect x="168" y="88" width="4" height="4" fill="black"/>
  <rect x="176" y="88" width="4" height="4" fill="black"/>
  <rect x="20" y="92" width="4" height="4" fill="black"/>
  <rect x="44" y="92" width="4" height="4" fill="black"/>
  <rect x="52" y="92" width="4" height="4" fill="black"/>
  <rect x="64" y="92" width="4" height="4" fill="black"/>
  <rect x="76" y="92" width="4" height="4" fill="black"/>
  <rect x="92" y="92" width="4" height="4" fill="black"/>
  <rect x="100" y="92" width="4" height="4" fill="black"/>
  <rect x="112" y="92" width="4" height="4" fill="black"/>
  <rect x="120" y="92" width="4" height="4" fill="black"/>
  <rect x="124" y="92" width="4" height="4" fill="black"/>
  <rect x="144" y="92" width="4" height="4" fill="black"/>
  <rect x="160" y="92" width="4" height="4" fill="black"/>
  <rect x="164" y="92" width="4" height="4" fill="black"/>
  <rect x="172" y="92" width="4" height="4" fill="black"/>
  <rect x="176" y="92" width="4" height="4" fill="black"/>
  <rect x="16" y="96" width="4" height="4" fill="black"/>
  <rect x="32" y="96" width="4" height="4" fill="black"/>
  <rect x="40" y="96" width="4" height="4" fill="black"/>
  <rect x="44" y="96" width="4" height="4" fill="black"/>
  <rect x="48" y="96" width="4" height="4" fill="black"/>
  <rect x="56" y="96" width="4" height="4" fill="black"/>
  <rect x="60" y="96" width="4" height="4" fill="black"/>
  <rect x="64" y="96" width="4" height="4" fill="black"/>
  <rect x="76" y="96" width="4" height="4" fill="black"/>
  <rect x="88" y="96" width="4" height="4" fill="black"/>
  <rect x="100" y="96" width="4" height="4" fill="black"/>
  <rect x="104" y="96" width="4" height="4" fill="black"/>
  <rect x="112" y="96" width="4" height="4" fill="black"/>
  <rect x="124" y="96" width="4" height="4" fill="black"/>
  <rect x="132" y="96" width="4" height="4" fill="black"/>
  <rect x="140" y="96" width="4" height="4" fill="black"/>
  <rect x="168" y="96" width="4" height="4" fill="black"/>
  <rect x="176" y="96" width="4" height="4" fill="black"/>
  <rect x="16" y="100" width="4" height="4" fill="black"/>
  <rect x="28" y="100" width="4" height="4" fill="black"/>
  <rect x="52" y="100" width="4" height="4" fill="black"/>
  <rect x="56" y="100" width="4" height="4" fill="black"/>
  <rect x="60" y="100" width="4" height="4" fill="black"/>
  <rect x="64" y="100" width="4" height="4" fill="black"/>
  <rect x="72" y="100" width="4" height="4" fill="black"/>
  <rect x="76" y="100" width="4" height="4" fill="black"/>
  <rect x="80" y="100" width="4" height="4" fill="black"/>
  <rect x="92" y="100" width="4" height="4" fill="black"/>
  <rect x="96" y="100" width="4" height="4" fill="black"/>
  <rect x="100" y="100" width="4" height="4" fill="black"/>
  <rect x="104" y="100" width="4" height="4" fill="black"/>
  <rect x="108" y="100" width="4" height="4" fill="black"/>
  <rect x="116" y="100" width="4" height="4" fill="black"/>
  <rect x="120" y="100" width="4" height="4" fill="black"/>
  <rect x="124" y="100" width="4" height="4" fill="black"/>
  <rect x="132" y="100" width="4" height="4" fill="black"/>
  <rect x="140" y="100" width="4" height="4" fill="black"/>
  <rect x="144" y="100" width="4" height="4" fill="black"/>
  <rect x="148" y="100" width="4" height="4" fill="black"/>
  <rect x="156" y="100" width="4" height="4" fill="black"/>
  <rect x="160" y="100" width="4" height="4" fill="black"/>
  <rect x="164" y="100" width="4" height="4" fill="black"/>
  <rect x="168" y="100" width="4" height="4" fill="black"/>
  <rect x="16" y="104" width="4" height="4" fill="black"/>
  <rect x="20" y="104" width="4" height="4" fill="black"/>
  <rect x="24" y="104" width="4" height="4" fill="black"/>
  <rect x="36" y="104" width="4" height="4" fill="black"/>
  <rect x="40" y="104" width="4" height="4" fill="black"/>
  <rect x="44" y="104" width="4" height="4" fill="black"/>
  <rect x="56" y="104" width="4" height="4" fill="black"/>
  <rect x="76" y="104" width="4" height="4" fill="black"/>
  <rect x="84" y="104" width="4" height="4" fill="black"/>
  <rect x="88" y="104" width="4" height="4" fill="black"/>
  <rect x="96" y="104" width="4" height="4" fill="black"/>
  <rect x="104" y="104" width="4" height="4" fill="black"/>
  <rect x="116" y="104" width="4" height="4" fill="black"/>
  <rect x="120" y="104" width="4" height="4" fill="black"/>
  <rect x="124" y="104" width="4" height="4" fill="black"/>
  <rect x="128" y="104" width="4" height="4" fill="black"/>
  <rect x="144" y="104" width="4" height="4" fill="black"/>
  <rect x="152" y="104" width="4" height="4" fill="black"/>
  <rect x="156" y="104" width="4" height="4" fill="black"/>
  <rect x="160" y="104" width="4" height="4" fill="black"/>
  <rect x="164" y="104" width="4" height="4" fill="black"/>
  <rect x="168" y="104" width="4" height="4" fill="black"/>
  <rect x="16" y="108" width="4" height="4" fill="black"/>
  <rect x="20" y="108" width="4" height="4" fill="black"/>
  <rect x="24" y="108" width="4" height="4" fill="black"/>
  <rect x="28" y="108" width="4" height="4" fill="black"/>
  <rect x="32" y="108" width="4" height="4" fill="black"/>
  <rect x="44" y="108" width="4" height="4" fill="black"/>
  <rect x="52" y="108" width="4" height="4" fill="black"/>
  <rect x="56" y="108" width="4" height="4" fill="black"/>
  <rect x="64" y="108" width="4" height="4" fill="black"/>
  <rect x="72" y="108" width="4" height="4" fill="black"/>
  <rect x="96" y="108" width="4" height="4" fill="black"/>
  <rect x="112" y="108" width="4" height="4" fill="black"/>
  <rect x="120" y="108" width="4" height="4" fill="black"/>
  <rect x="136" y="108" width="4" height="4" fill="black"/>
  <rect x="140" y="108" width="4" height="4" fill="black"/>
  <rect x="152" y="108" width="4" height="4" fill="black"/>
  <rect x="164" y="108" width="4" height="4" fill="black"/>
  <rect x="172" y="108" width="4" height="4" fill="black"/>
  <rect x="176" y="108" width="4" height="4" fill="black"/>
  <rect x="20" y="112" width="4" height="4" fill="black"/>
  <rect x="32" y="112" width="4" height="4" fill="black"/>
  <rect x="36" y="112" width="4" height="4" fill="black"/>
  <rect x="40" y="112" width="4" height="4" fill="black"/>
  <rect x="48" y="112" width="4" height="4" fill="black"/>
  <rect x="56" y="112" width="4" height="4" fill="black"/>
  <rect x="68" y="112" width="4" height="4" fill="black"/>
  <rect x="72" y="112" width="4" height="4" fill="black"/>
  <rect x="96" y="112" width="4" height="4" fill="black"/>
  <rect x="112" y="112" width="4" height="4" fill="black"/>
  <rect x="124" y="112" width="4" height="4" fill="black"/>
  <rect x="128" y="112" width="4" height="4" fill="black"/>
  <rect x="140" y="112" width="4" height="4" fill="black"/>
  <rect x="144" y="112" width="4" height="4" fill="black"/>
  <rect x="152" y="112" width="4" height="4" fill="black"/>
  <rect x="156" y="112" width="4" height="4" fill="black"/>
  <rect x="164" y="112" width="4" height="4" fill="black"/>
  <rect x="24" y="116" width="4" height="4" fill="black"/>
  <rect x="32" y="116" width="4" height="4" fill="black"/>
  <rect x="36" y="116" width="4" height="4" fill="black"/>
  <rect x="44" y="116" width="4" height="4" fill="black"/>
  <rect x="48" y="116" width="4" height="4" fill="black"/>
  <rect x="56" y="116" width="4" height="4" fill="black"/>
  <rect x="64" y="116" width="4" height="4" fill="black"/>
  <rect x="72" y="116" width="4" height="4" fill="black"/>
  <rect x="84" y="116" width="4" height="4" fill="black"/>
  <rect x="92" y="116" width="4" height="4" fill="black"/>
  <rect x="96" y="116" width="4" height="4" fill="black"/>
  <rect x="108" y="116" width="4" height="4" fill="black"/>
  <rect x="124" y="116" width="4" height="4" fill="black"/>
  <rect x="136" y="116" width="4" height="4" fill="black"/>
  <rect x="140" y="116" width="4" height="4" fill="black"/>
  <rect x="148" y="116" width="4" height="4" fill="black"/>
  <rect x="152" y="116" width="4" height="4" fill="black"/>
  <rect x="156" y="116" width="4" height="4" fill="black"/>
  <rect x="160" y="116" width="4" height="4" fill="black"/>
  <rect x="164" y="116" width="4" height="4" fill="black"/>
  <rect x="176" y="116" width="4" height="4" fill="black"/>
  <rect x="24" y="120" width="4" height="4" fill="black"/>
  <rect x="32" y="120" width="4" height="4" fill="black"/>
  <rect x="40" y="120" width="4" height="4" fill="black"/>
  <rect x="48" y="120" width="4" height="4" fill="black"/>
  <rect x="52" y="120" width="4" height="4" fill="black"/>
  <rect x="60" y="120" width="4" height="4" fill="black"/>
  <rect x="68" y="120" width="4" height="4" fill="black"/>
  <rect x="76" y="120" width="4" height="4" fill="black"/>
  <rect x="80" y="120" width="4" height="4" fill="black"/>
  <rect x="84" y="120" width="4" height="4" fill="black"/>
  <rect x="88" y="120" width="4" height="4" fill="black"/>
  <rect x="96" y="120" width="4" height="4" fill="black"/>
  <rect x="116" y="120" width="4" height="4" fill="black"/>
  <rect x="124" y="120" width="4" height="4" fill="black"/>
  <rect x="128" y="120" width="4" height="4" fill="black"/>
  <rect x="144" y="120" width="4" height="4" fill="black"/>
  <rect x="152" y="120" width="4" height="4" fill="black"/>
  <rect x="156" y="120" width="4" height="4" fill="black"/>
  <rect x="160" y="120" width="4" height="4" fill="black"/>
  <rect x="16" y="124" width="4" height="4" fill="black"/>
  <rect x="20" y="124" width="4" height="4" fill="black"/>
  <rect x="36" y="124" width="4" height="4" fill="black"/>
  <rect x="44" y="124" width="4" height="4" fill="black"/>
  <rect x="52" y="124" width="4" height="4" fill="black"/>
  <rect x="56" y="124" width="4" height="4" fill="black"/>
  <rect x="64" y="124" width="4" height="4" fill="black"/>
  <rect x="92" y="124" width="4" height="4" fill="black"/>
  <rect x="108" y="124" width="4" height="4" fill="black"/>
  <rect x="128" y="124" width="4" height="4" fill="black"/>
  <rect x="140" y="124" width="4" height="4" fill="black"/>
  <rect x="148" y="124" width="4" height="4" fill="black"/>
  <rect x="152" y="124" width="4" height="4" fill="black"/>
  <rect x="156" y="124" width="4" height="4" fill="black"/>
  <rect x="160" y="124" width="4" height="4" fill="black"/>
  <rect x="164" y="124" width="4" height="4" fill="black"/>
  <rect x="168" y="124" width="4" height="4" fill="black"/>
  <rect x="172" y="124" width="4" height="4" fill="black"/>
  <rect x="176" y="124" width="4" height="4" fill="black"/>
  <rect x="20" y="128" width="4" height="4" fill="black"/>
  <rect x="24" y="128" width="4" height="4" fill="black"/>
  <rect x="40" y="128" width="4" height="4" fill="black"/>
  <rect x="44" y="128" width="4" height="4" fill="black"/>
  <rect x="52" y="128" width="4" height="4" fill="black"/>
  <rect x="60" y="128" width="4" height="4" fill="black"/>
  <rect x="84" y="128" width="4" height="4" fill="black"/>
  <rect x="92" y="128" width="4" height="4" fill="black"/>
  <rect x="104" y="128" width="4" height="4" fill="black"/>
  <rect x="116" y="128" width="4" height="4" fill="black"/>
  <rect x="132" y="128" width="4" height="4" fill="black"/>
  <rect x="140" y="128" width="4" height="4" fill="black"/>
  <rect x="164" y="128" width="4" height="4" fill="black"/>
  <rect x="168" y="128" width="4" height="4" fill="black"/>
  <rect x="172" y="128" width="4" height="4" fill="black"/>
  <rect x="24" y="132" width="4" height="4" fill="black"/>
  <rect x="28" y="132" width="4" height="4" fill="black"/>
  <rect x="32" y="132" width="4" height="4" fill="black"/>
  <rect x="36" y="132" width="4" height="4" fill="black"/>
  <rect x="48" y="132" width="4" height="4" fill="black"/>
  <rect x="56" y="132" width="4" height="4" fill="black"/>
  <rect x="60" y="132" width="4" height="4" fill="black"/>
  <rect x="68" y="132" width="4" height="4" fill="black"/>
  <rect x="72" y="132" width="4" height="4" fill="black"/>
  <rect x="96" y="132" width="4" height="4" fill="black"/>
  <rect x="112" y="132" width="4" height="4" fill="black"/>
  <rect x="116" y="132" width="4" height="4" fill="black"/>
  <rect x="120" y="132" width="4" height="4" fill="black"/>
  <rect x="124" y="132" width="4" height="4" fill="black"/>
  <rect x="128" y="132" width="4" height="4" fill="black"/>
  <rect x="140" y="132" width="4" height="4" fill="black"/>
  <rect x="144" y="132" width="4" height="4" fill="black"/>
  <rect x="148" y="132" width="4" height="4" fill="black"/>
  <rect x="152" y="132" width="4" height="4" fill="black"/>
  <rect x="156" y="132" width="4" height="4" fill="black"/>
  <rect x="160" y="132" width="4" height="4" fill="black"/>
  <rect x="164" y="132" width="4" height="4" fill="black"/>
  <rect x="176" y="132" width="4" height="4" fill="black"/>
  <rect x="24" y="136" width="4" height="4" fill="black"/>
  <rect x="32" y="136" width="4" height="4" fill="black"/>
  <rect x="40" y="136" width="4" height="4" fill="black"/>
  <rect x="44" y="136" width="4" height="4" fill="black"/>
  <rect x="48" y="136" width="4" height="4" fill="black"/>
  <rect x="52" y="136" width="4" height="4" fill="black"/>
  <rect x="56" y="136" width="4" height="4" fill="black"/>
  <rect x="64" y="136" width="4" height="4" fill="black"/>
  <rect x="72" y="136" width="4" height="4" fill="black"/>
  <rect x="84" y="136" width="4" height="4" fill="black"/>
  <rect x="88" y="136" width="4" height="4" fill="black"/>
  <rect x="96" y="136" width="4" height="4" fill="black"/>
  <rect x="108" y="136" width="4" height="4" fill="black"/>
  <rect x="116" y="136" width="4" height="4" fill="black"/>
  <rect x="124" y="136" width="4" height="4" fill="black"/>
  <rect x="128" y="136" width="4" height="4" fill="black"/>
  <rect x="132" y="136" width="4" height="4" fill="black"/>
  <rect x="140" y="136" width="4" height="4" fill="black"/>
  <rect x="148" y="136" width="4" height="4" fill="black"/>
  <rect x="168" y="136" width="4" height="4" fill="black"/>
  <rect x="176" y="136" width="4" height="4" fill="black"/>
  <rect x="20" y="140" width="4" height="4" fill="black"/>
  <rect x="24" y="140" width="4" height="4" fill="black"/>
  <rect x="32" y="140" width="4" height="4" fill="black"/>
  <rect x="36" y="140" width="4" height="4" fill="black"/>
  <rect x="48" y="140" width="4" height="4" fill="black"/>
  <rect x="52" y="140" width="4" height="4" fill="black"/>
  <rect x="56" y="140" width="4" height="4" fill="black"/>
  <rect x="64" y="140" width="4" height="4" fill="black"/>
  <rect x="68" y="140" width="4" height="4" fill="black"/>
  <rect x="72" y="140" width="4" height="4" fill="black"/>
  <rect x="76" y="140" width="4" height="4" fill="black"/>
  <rect x="80" y="140" width="4" height="4" fill="black"/>
  <rect x="88" y="140" width="4" height="4" fill="black"/>
  <rect x="92" y="140" width="4" height="4" fill="black"/>
  <rect x="96" y="140" width="4" height="4" fill="black"/>
  <rect x="112" y="140" width="4" height="4" fill="black"/>
  <rect x="136" y="140" width="4" height="4" fill="black"/>
  <rect x="140" y="140" width="4" height="4" fill="black"/>
  <rect x="144" y="140" width="4" height="4" fill="black"/>
  <rect x="152" y="140" width="4" height="4" fill="black"/>
  <rect x="156" y="140" width="4" height="4" fill="black"/>
  <rect x="172" y="140" width="4" height="4" fill="black"/>
  <rect x="176" y="140" width="4" height="4" fill="black"/>
  <rect x="20" y="144" width="4" height="4" fill="black"/>
  <rect x="32" y="144" width="4" height="4" fill="black"/>
  <rect x="40" y="144" width="4" height="4" fill="black"/>
  <rect x="48" y="144" width="4" height="4" fill="black"/>
  <rect x="60" y="144" width="4" height="4" fill="black"/>
  <rect x="72" y="144" width="4" height="4" fill="black"/>
  <rect x="76" y="144" width="4" height="4" fill="black"/>
  <rect x="80" y="144" width="4" height="4" fill="black"/>
  <rect x="84" y="144" width="4" height="4" fill="black"/>
  <rect x="92" y="144" width="4" height="4" fill="black"/>
  <rect x="104" y="144" width="4" height="4" fill="black"/>
  <rect x="112" y="144" width="4" height="4" fill="black"/>
  <rect x="116" y="144" width="4" height="4" fill="black"/>
  <rect x="120" y="144" width="4" height="4" fill="black"/>
  <rect x="128" y="144" width="4" height="4" fill="black"/>
  <rect x="132" y="144" width="4" height="4" fill="black"/>
  <rect x="144" y="144" width="4" height="4" fill="black"/>
  <rect x="148" y="144" width="4" height="4" fill="black"/>
  <rect x="152" y="144" width="4" height="4" fill="black"/>
  <rect x="156" y="144" width="4" height="4" fill="black"/>
  <rect x="160" y="144" width="4" height="4" fill="black"/>
  <rect x="168" y="144" width="4" height="4" fill="black"/>
  <rect x="172" y="144" width="4" height="4" fill="black"/>
  <rect x="48" y="148" width="4" height="4" fill="black"/>
  <rect x="72" y="148" width="4" height="4" fill="black"/>
  <rect x="76" y="148" width="4" height="4" fill="black"/>
  <rect x="84" y="148" width="4" height="4" fill="black"/>
  <rect x="88" y="148" width="4" height="4" fill="black"/>
  <rect x="92" y="148" width="4" height="4" fill="black"/>
  <rect x="108" y="148" width="4" height="4" fill="black"/>
  <rect x="116" y="148" width="4" height="4" fill="black"/>
  <rect x="120" y="148" width="4" height="4" fill="black"/>
  <rect x="124" y="148" width="4" height="4" fill="black"/>
  <rect x="136" y="148" width="4" height="4" fill="black"/>
  <rect x="144" y="148" width="4" height="4" fill="black"/>
  <rect x="160" y="148" width="4" height="4" fill="black"/>
  <rect x="164" y="148" width="4" height="4" fill="black"/>
  <rect x="16" y="152" width="4" height="4" fill="black"/>
  <rect x="20" y="152" width="4" height="4" fill="black"/>
  <rect x="24" y="152" width="4" height="4" fill="black"/>
  <rect x="28" y="152" width="4" height="4" fill="black"/>
  <rect x="32" y="152" width="4" height="4" fill="black"/>
  <rect x="36" y="152" width="4" height="4" fill="black"/>
  <rect x="40" y="152" width="4" height="4" fill="black"/>
  <rect x="64" y="152" width="4" height="4" fill="black"/>
  <rect x="72" y="152" width="4" height="4" fill="black"/>
  <rect x="84" y="152" width="4" height="4" fill="black"/>
  <rect x="100" y="152" width="4" height="4" fill="black"/>
  <rect x="116" y="152" width="4" height="4" fill="black"/>
  <rect x="120" y="152" width="4" height="4" fill="black"/>
  <rect x="124" y="152" width="4" height="4" fill="black"/>
  <rect x="132" y="152" width="4" height="4" fill="black"/>
  <rect x="136" y="152" width="4" height="4" fill="black"/>
  <rect x="140" y="152" width="4" height="4" fill="black"/>
  <rect x="144" y="152" width="4" height="4" fill="black"/>
  <rect x="152" y="152" width="4" height="4" fill="black"/>
  <rect x="160" y="152" width="4" height="4" fill="black"/>
  <rect x="164" y="152" width="4" height="4" fill="black"/>
  <rect x="168" y="152" width="4" height="4" fill="black"/>
  <rect x="16" y="156" width="4" height="4" fill="black"/>
  <rect x="40" y="156" width="4" height="4" fill="black"/>
  <rect x="60" y="156" width="4" height="4" fill="black"/>
  <rect x="64" y="156" width="4" height="4" fill="black"/>
  <rect x="68" y="156" width="4" height="4" fill="black"/>
  <rect x="76" y="156" width="4" height="4" fill="black"/>
  <rect x="80" y="156" width="4" height="4" fill="black"/>
  <rect x="84" y="156" width="4" height="4" fill="black"/>
  <rect x="88" y="156" width="4" height="4" fill="black"/>
  <rect x="104" y="156" width="4" height="4" fill="black"/>
  <rect x="112" y="156" width="4" height="4" fill="black"/>
  <rect x="116" y="156" width="4" height="4" fill="black"/>
  <rect x="124" y="156" width="4" height="4" fill="black"/>
  <rect x="140" y="156" width="4" height="4" fill="black"/>
  <rect x="144" y="156" width="4" height="4" fill="black"/>
  <rect x="160" y="156" width="4" height="4" fill="black"/>
  <rect x="164" y="156" width="4" height="4" fill="black"/>
  <rect x="16" y="160" width="4" height="4" fill="black"/>
  <rect x="24" y="160" width="4" height="4" fill="black"/>
  <rect x="28" y="160" width="4" height="4" fill="black"/>
  <rect x="32" y="160" width="4" height="4" fill="black"/>
  <rect x="40" y="160" width="4" height="4" fill="black"/>
  <rect x="56" y="160" width="4" height="4" fill="black"/>
  <rect x="60" y="160" width="4" height="4" fill="black"/>
  <rect x="68" y="160" width="4" height="4" fill="black"/>
  <rect x="72" y="160" width="4" height="4" fill="black"/>
  <rect x="76" y="160" width="4" height="4" fill="black"/>
  <rect x="80" y="160" width="4" height="4" fill="black"/>
  <rect x="84" y="160" width="4" height="4" fill="black"/>
  <rect x="92" y="160" width="4" height="4" fill="black"/>
  <rect x="96" y="160" width="4" height="4" fill="black"/>
  <rect x="100" y="160" width="4" height="4" fill="black"/>
  <rect x="104" y="160" width="4" height="4" fill="black"/>
  <rect x="112" y="160" width="4" height="4" fill="black"/>
  <rect x="116" y="160" width="4" height="4" fill="black"/>
  <rect x="124" y="160" width="4" height="4" fill="black"/>
  <rect x="128" y="160" width="4" height="4" fill="black"/>
  <rect x="140" y="160" width="4" height="4" fill="black"/>
  <rect x="144" y="160" width="4" height="4" fill="black"/>
  <rect x="148" y="160" width="4" height="4" fill="black"/>
  <rect x="152" y="160" width="4" height="4" fill="black"/>
  <rect x="156" y="160" width="4" height="4" fill="black"/>
  <rect x="160" y="160" width="4" height="4" fill="black"/>
  <rect x="176" y="160" width="4" height="4" fill="black"/>
  <rect x="16" y="164" width="4" height="4" fill="black"/>
  <rect x="24" y="164" width="4" height="4" fill="black"/>
  <rect x="28" y="164" width="4" height="4" fill="black"/>
  <rect x="32" y="164" width="4" height="4" fill="black"/>
  <rect x="40" y="164" width="4" height="4" fill="black"/>
  <rect x="52" y="164" width="4" height="4" fill="black"/>
  <rect x="72" y="164" width="4" height="4" fill="black"/>
  <rect x="84" y="164" width="4" height="4" fill="black"/>
  <rect x="88" y="164" width="4" height="4" fill="black"/>
  <rect x="92" y="164" width="4" height="4" fill="black"/>
  <rect x="96" y="164" width="4" height="4" fill="black"/>
  <rect x="104" y="164" width="4" height="4" fill="black"/>
  <rect x="108" y="164" width="4" height="4" fill="black"/>
  <rect x="116" y="164" width="4" height="4" fill="black"/>
  <rect x="124" y="164" width="4" height="4" fill="black"/>
  <rect x="128" y="164" width="4" height="4" fill="black"/>
  <rect x="136" y="164" width="4" height="4" fill="black"/>
  <rect x="140" y="164" width="4" height="4" fill="black"/>
  <rect x="144" y="164" width="4" height="4" fill="black"/>
  <rect x="156" y="164" width="4" height="4" fill="black"/>
  <rect x="164" y="164" width="4" height="4" fill="black"/>
  <rect x="168" y="164" width="4" height="4" fill="black"/>
  <rect x="172" y="164" width="4" height="4" fill="black"/>
  <rect x="16" y="168" width="4" height="4" fill="black"/>
  <rect x="24" y="168" width="4" height="4" fill="black"/>
  <rect x="28" y="168" width="4" height="4" fill="black"/>
  <rect x="32" y="168" width="4" height="4" fill="black"/>
  <rect x="40" y="168" width="4" height="4" fill="black"/>
  <rect x="52" y="168" width="4" height="4" fill="black"/>
  <rect x="56" y="168" width="4" height="4" fill="black"/>
  <rect x="68" y="168" width="4" height="4" fill="black"/>
  <rect x="76" y="168" width="4" height="4" fill="black"/>
  <rect x="84" y="168" width="4" height="4" fill="black"/>
  <rect x="88" y="168" width="4" height="4" fill="black"/>
  <rect x="96" y="168" width="4" height="4" fill="black"/>
  <rect x="116" y="168" width="4" height="4" fill="black"/>
  <rect x="120" y="168" width="4" height="4" fill="black"/>
  <rect x="124" y="168" width="4" height="4" fill="black"/>
  <rect x="136" y="168" width="4" height="4" fill="black"/>
  <rect x="148" y="168" width="4" height="4" fill="black"/>
  <rect x="152" y="168" width="4" height="4" fill="black"/>
  <rect x="156" y="168" width="4" height="4" fill="black"/>
  <rect x="160" y="168" width="4" height="4" fill="black"/>
  <rect x="168" y="168" width="4" height="4" fill="black"/>
  <rect x="16" y="172" width="4" height="4" fill="black"/>
  <rect x="40" y="172" width="4" height="4" fill="black"/>
  <rect x="56" y="172" width="4" height="4" fill="black"/>
  <rect x="64" y="172" width="4" height="4" fill="black"/>
  <rect x="76" y="172" width="4" height="4" fill="black"/>
  <rect x="92" y="172" width="4" height="4" fill="black"/>
  <rect x="108" y="172" width="4" height="4" fill="black"/>
  <rect x="140" y="172" width="4" height="4" fill="black"/>
  <rect x="152" y="172" width="4" height="4" fill="black"/>
  <rect x="160" y="172" width="4" height="4" fill="black"/>
  <rect x="164" y="172" width="4" height="4" fill="black"/>
  <rect x="168" y="172" width="4" height="4" fill="black"/>
  <rect x="176" y="172" width="4" height="4" fill="black"/>
  <rect x="16" y="176" width="4" height="4" fill="black"/>
  <rect x="20" y="176" width="4" height="4" fill="black"/>
  <rect x="24" y="176" width="4" height="4" fill="black"/>
  <rect x="28" y="176" width="4" height="4" fill="black"/>
  <rect x="32" y="176" width="4" height="4" fill="black"/>
  <rect x="36" y="176" width="4" height="4" fill="black"/>
  <rect x="40" y="176" width="4" height="4" fill="black"/>
  <rect x="48" y="176" width="4" height="4" fill="black"/>
  <rect x="52" y="176" width="4" height="4" fill="black"/>
  <rect x="56" y="176" width="4" height="4" fill="black"/>
  <rect x="68" y="176" width="4" height="4" fill="black"/>
  <rect x="72" y="176" width="4" height="4" fill="black"/>
  <rect x="76" y="176" width="4" height="4" fill="black"/>
  <rect x="80" y="176" width="4" height="4" fill="black"/>
  <rect x="84" y="176" width="4" height="4" fill="black"/>
  <rect x="88" y="176" width="4" height="4" fill="black"/>
  <rect x="92" y="176" width="4" height="4" fill="black"/>
  <rect x="104" y="176" width="4" height="4" fill="black"/>
  <rect x="108" y="176" width="4" height="4" fill="black"/>
  <rect x="112" y="176" width="4" height="4" fill="black"/>
  <rect x="116" y="176" width="4" height="4" fill="black"/>
  <rect x="120" y="176" width="4" height="4" fill="black"/>
  <rect x="124" y="176" width="4" height="4" fill="black"/>
  <rect x="128" y="176" width="4" height="4" fill="black"/>
  <rect x="132" y="176" width="4" height="4" fill="black"/>
  <rect x="140" y="176" width="4" height="4" fill="black"/>
  <rect x="148" y="176" width="4" height="4" fill="black"/>
  <rect x="156" y="176" width="4" height="4" fill="black"/>
  <rect x="160" y="176" width="4" height="4" fill="black"/>
  <rect x="168" y="176" width="4" height="4" fill="black"/>
</svg>